<?xml version="1.0" encoding="utf-8"?>
<!-- Generator: Adobe Illustrator 21.0.2, SVG Export Plug-In . SVG Version: 6.00 Build 0)  -->
<svg version="1.1" id="architecture" xmlns="http://www.w3.org/2000/svg" xmlns:xlink="http://www.w3.org/1999/xlink" x="0px"
	 y="0px" viewBox="0 0 150 150" style="enable-background:new 0 0 150 150;" xml:space="preserve">
<style type="text/css">
	.st0{fill:url(#SVGID_1_);}
	.st1{fill:url(#SVGID_2_);}
	.st2{fill:url(#SVGID_3_);}
	.st3{fill:url(#SVGID_4_);}
	.st4{fill:url(#SVGID_5_);}
	.st5{fill:url(#SVGID_6_);}
	.st6{fill:url(#SVGID_7_);}
	.st7{fill:url(#SVGID_8_);}
	.st8{fill:url(#SVGID_9_);}
	.st9{fill:url(#SVGID_10_);}
</style>
<g>
	<linearGradient id="SVGID_1_" gradientUnits="userSpaceOnUse" x1="1" y1="50.65" x2="150.0034" y2="50.65">
		<stop  offset="0" style="stop-color:#E1CEDF"/>
		<stop  offset="1" style="stop-color:#E2F0EE"/>
	</linearGradient>
	<path class="st0" d="M146.5,66.7l-15.4-15.5c-0.5-0.5-1.4-0.5-1.9,0c-0.3,0.3-0.4,0.6-0.4,0.9c0,0.4,0.1,0.7,0.4,0.9l15.4,15.5
		c1.3,1.3,1.3,3.4,0,4.7c-0.6,0.6-1.5,1-2.3,1c-0.9,0-1.7-0.4-2.3-1L81.2,14c-0.6-0.6-1.4-1-2.3-1.1c-0.4-0.1-0.7-0.1-1,0
		c-0.9,0.1-1.8,0.5-2.4,1.2L16.8,73.2c-0.6,0.6-1.5,1-2.3,1c-0.9,0-1.7-0.3-2.3-1c-1.3-1.3-1.3-3.4,0-4.7L76.8,3.3
		c0.4-0.4,1-0.6,1.5-0.6c0.6,0,1.1,0.2,1.5,0.6l39.6,40c0.5,0.5,1.4,0.5,1.9,0c0.3-0.2,0.4-0.6,0.4-0.9c0-0.4-0.1-0.7-0.4-0.9
		L81.8,1.4C80.9,0.5,79.7,0,78.4,0c-1.3,0-2.5,0.5-3.4,1.4L45.7,30.9v-5.8h1.4c1.1,0,2.1-0.9,2.1-2.1v-6c0-1.1-0.9-2.1-2.1-2.1H24.8
		c-1.1,0-2.1,0.9-2.1,2.1v6c0,1.1,0.9,2.1,2.1,2.1h1.4v25.5l-16,16.1c-2.3,2.3-2.3,6.1,0,8.4c1.1,1.1,2.6,1.7,4.2,1.7
		s3.1-0.6,4.2-1.8l4.8-4.8V100c0,0.7,0.6,1.3,1.3,1.3c0.7,0,1.3-0.6,1.3-1.3V67.6l51.3-51.7c0.3-0.3,0.6-0.4,1-0.4s0.7,0.1,1,0.4
		l51.3,51.7v11.3c0.5,0.7,1.2,0.9,2.7,1.4v-10l4.8,4.8c1.1,1.1,2.6,1.8,4.2,1.8c1.6,0,3.1-0.6,4.2-1.7
		C148.8,72.8,148.9,69,146.5,66.7z M43,33.6L28.8,47.9V25.1H43V33.6z M25.4,22.5v-4.8h21.2v4.8H25.4z"/>
	<linearGradient id="SVGID_2_" gradientUnits="userSpaceOnUse" x1="1" y1="43.25" x2="150.0034" y2="43.25">
		<stop  offset="0" style="stop-color:#E1CEDF"/>
		<stop  offset="1" style="stop-color:#E2F0EE"/>
	</linearGradient>
	<path class="st1" d="M102.2,53.3L79.7,30.6c-0.4-0.4-0.8-0.5-1.3-0.5s-1,0.2-1.3,0.6c0,0-5.6,5.7-11.3,11.4
		C54.5,53.3,54.5,53.3,54.5,53.3c-0.5,0.5-0.7,1.3-0.4,2s1,1.1,1.7,1.1h45c0.8,0,1.4-0.5,1.7-1.1C102.9,54.6,102.8,53.8,102.2,53.3z
		 M77,53.8H57.8l6.2-6.3h13V53.8L77,53.8z M77,44.9H66.7L77,34.4V44.9z M79.7,34.4l10.4,10.5H79.7V34.4z M79.7,53.8v-6.3h13l6.2,6.3
		H79.7L79.7,53.8z"/>
	<linearGradient id="SVGID_3_" gradientUnits="userSpaceOnUse" x1="1" y1="75.5" x2="150.0034" y2="75.5">
		<stop  offset="0" style="stop-color:#E1CEDF"/>
		<stop  offset="1" style="stop-color:#E2F0EE"/>
	</linearGradient>
	<path class="st2" d="M56.2,73.3c-4.4-1.4-5.2-2.1-6.5-6.5c-0.3-1-1.2-1.6-2.2-1.6s-1.9,0.6-2.2,1.6c-1.4,4.4-2.1,5.2-6.5,6.5
		c-1,0.3-1.6,1.2-1.6,2.2s0.6,1.9,1.6,2.2c2.2,0.7,3.5,1.2,4.4,2.1s1.4,2.2,2.1,4.4c0.3,1,1.2,1.6,2.2,1.6s1.9-0.6,2.2-1.6
		c1.4-4.4,2.1-5.2,6.5-6.5c1-0.3,1.6-1.2,1.6-2.2S57.2,73.6,56.2,73.3z M52.3,76.3c-2,0.9-3.1,2-4,4L47.5,82l-0.8-1.7
		c-0.9-2-2-3.1-4-4L41,75.5l1.7-0.8c2-0.9,3.1-2,4-4l0.8-1.7l0.8,1.7c0.9,2,2,3.1,4,4l1.7,0.8L52.3,76.3z"/>
	<linearGradient id="SVGID_4_" gradientUnits="userSpaceOnUse" x1="1" y1="114.45" x2="150.0034" y2="114.45">
		<stop  offset="0" style="stop-color:#E1CEDF"/>
		<stop  offset="1" style="stop-color:#E2F0EE"/>
	</linearGradient>
	<path class="st3" d="M143.5,139.6h-1l-0.2-0.7c-1-4.5-4.2-8-8.4-9.2l-0.6-0.2V80.3c-1.5-0.5-2.2-0.7-2.7-1.4v51.2l-1.6-1.8
		c-0.1-0.1-0.2-0.2-0.3-0.3c-0.1-0.1-0.2-0.2-0.3-0.3c-0.1-0.1-0.2-0.2-0.3-0.3c-0.1-0.1-0.2-0.2-0.3-0.3c-0.1-0.1-0.2-0.2-0.3-0.2
		c-0.1-0.1-0.2-0.2-0.3-0.3c-0.1-0.1-0.2-0.2-0.3-0.2c-0.1-0.1-0.2-0.2-0.3-0.2c-0.1-0.1-0.2-0.1-0.3-0.2c-0.1-0.1-0.2-0.1-0.3-0.2
		c-0.1-0.1-0.2-0.1-0.3-0.2c-0.1-0.1-0.2-0.1-0.4-0.2c-0.1-0.1-0.2-0.1-0.3-0.2c-0.1-0.1-0.2-0.1-0.4-0.2c-0.1-0.1-0.2-0.1-0.3-0.2
		c-0.1-0.1-0.2-0.1-0.3-0.2h-0.1c-0.1,0-0.2-0.1-0.3-0.1c-0.1-0.1-0.3-0.1-0.4-0.1h-0.1c-0.1,0-0.2-0.1-0.3-0.1
		c-0.1,0-0.2-0.1-0.4-0.1h-0.1c-0.1,0-0.2-0.1-0.3-0.1c-0.1,0-0.2-0.1-0.4-0.1h-0.2c-0.1,0-0.1,0-0.2-0.1c-0.1,0-0.3-0.1-0.4-0.1
		h-0.2c-0.1,0-0.1,0-0.2,0s-0.2,0-0.4-0.1h-0.2c-0.1,0-0.1,0-0.2,0c-0.2,0-0.3,0-0.5,0h-0.2h-0.1c-0.3,0-0.5,0-0.8,0
		c-1.3,0-2.6,0.2-3.8,0.5c-4.4,1.2-8.1,4.4-9.8,8.6l-0.1,0.3l-0.3,0.1c-0.2,0.1-0.4,0.2-0.6,0.2l-0.2,0.1c-0.1,0.1-0.3,0.1-0.4,0.2
		c-0.1,0-0.1,0.1-0.2,0.1c-0.1,0.1-0.2,0.1-0.3,0.2l-0.2,0.1c-0.1,0.1-0.2,0.2-0.3,0.2l-0.1,0.1c-0.2,0.1-0.3,0.2-0.4,0.4l0,0
		c-0.1,0.1-0.2,0.2-0.4,0.3l-0.1,0.1l0,0c-0.1,0.1-0.2,0.2-0.3,0.3c0,0.1-0.1,0.1-0.1,0.1c-0.1,0.1-0.2,0.2-0.2,0.3l0,0l-0.1,0.1
		c-0.1,0.1-0.2,0.2-0.2,0.3l-0.1,0.1c-0.1,0.2-0.2,0.3-0.3,0.5l-0.1,0.1c-0.1,0.1-0.1,0.3-0.2,0.4c0,0,0,0.1-0.1,0.1v0.1
		c-0.1,0.1-0.1,0.2-0.2,0.4c0,0.1-0.1,0.1-0.1,0.2c0,0.1-0.1,0.3-0.1,0.4v0.1v0.1v0.1l-0.2,0.6h-0.7h-4.4V95.9
		c0-2.6-2.1-4.7-4.7-4.7H68.1c-2.6,0-4.7,2.1-4.7,4.7v43.8h-5.1l-0.2-0.7v-0.1v-0.1c0-0.1-0.1-0.2-0.1-0.4c0-0.1-0.1-0.1-0.1-0.2
		c0-0.1-0.1-0.2-0.1-0.3v-0.1c0,0,0-0.1-0.1-0.1c-0.1-0.1-0.1-0.3-0.2-0.4l-0.1-0.1c-0.1-0.2-0.2-0.3-0.3-0.5l-0.1-0.1
		c-0.1-0.1-0.1-0.2-0.2-0.3l-0.1-0.1c-0.1-0.1-0.2-0.2-0.2-0.3s-0.1-0.1-0.1-0.2c-0.1-0.1-0.2-0.2-0.3-0.3l-0.1-0.1l-0.1-0.1
		c-0.1-0.1-0.2-0.2-0.3-0.3h-0.1c-0.2-0.1-0.3-0.3-0.5-0.4l-0.1-0.1c-0.1-0.1-0.2-0.2-0.3-0.2s-0.1-0.1-0.2-0.1
		c-0.1-0.1-0.2-0.1-0.3-0.2c-0.1,0-0.1-0.1-0.2-0.1c-0.1-0.1-0.2-0.1-0.4-0.2l-0.2-0.1c-0.2-0.1-0.4-0.2-0.6-0.2l-0.3-0.1l-0.1-0.3
		c-2.3-5.5-7.6-9.1-13.6-9.1c-0.3,0-0.5,0-0.8,0h-0.1h-0.2c-0.2,0-0.3,0-0.5,0c-0.1,0-0.1,0-0.2,0h-0.2c-0.1,0-0.2,0-0.4,0.1
		c-0.1,0-0.1,0-0.2,0h-0.2c-0.1,0-0.2,0-0.4,0.1c-0.1,0-0.2,0-0.2,0.1h-0.2c-0.1,0-0.2,0.1-0.3,0.1s-0.2,0.1-0.3,0.1h-0.2
		c-0.1,0-0.2,0.1-0.3,0.1s-0.2,0.1-0.3,0.1h-0.1c-0.1,0.1-0.3,0.1-0.4,0.1c-0.1,0-0.2,0.1-0.3,0.1h-0.1c-0.1,0.1-0.2,0.1-0.4,0.2
		c-0.1,0.1-0.2,0.1-0.3,0.2s-0.2,0.1-0.4,0.2c-0.1,0.1-0.2,0.1-0.3,0.2c-0.1,0.1-0.2,0.1-0.3,0.2c-0.1,0.1-0.2,0.1-0.3,0.2
		c-0.1,0.1-0.2,0.1-0.3,0.2c-0.1,0.1-0.2,0.1-0.3,0.2c-0.1,0.1-0.2,0.2-0.3,0.2c-0.1,0.1-0.2,0.1-0.3,0.2c-0.1,0.1-0.2,0.2-0.3,0.3
		c-0.1,0.1-0.2,0.2-0.3,0.2c-0.1,0.1-0.2,0.2-0.3,0.3c-0.1,0.1-0.2,0.2-0.3,0.3c-0.1,0.1-0.2,0.2-0.3,0.3c-0.1,0.1-0.2,0.2-0.3,0.3
		l-0.1,0.1l-1.5,1.7v-16.4c0-0.7-0.6-1.3-1.3-1.3s-1.3,0.6-1.3,1.3v15.7l-0.6,0.2c-4.2,1.3-7.3,4.7-8.4,9.2l-0.2,0.7h-1
		c-2.9,0-5.2,2.3-5.2,5.2s2.3,5.2,5.2,5.2h130.2c2.9,0,5.2-2.3,5.2-5.2C148.7,142,146.4,139.6,143.5,139.6z M101.8,138.3
		c0.1-0.2,0.2-0.3,0.3-0.5l0.1-0.1l0,0c0.1-0.1,0.2-0.2,0.3-0.3l0.1-0.1c0.1-0.1,0.2-0.2,0.3-0.3l0,0l0.1-0.1
		c0.1-0.1,0.3-0.2,0.4-0.3l0,0c0.2-0.1,0.3-0.2,0.5-0.3c0,0,0.1,0,0.1-0.1l0,0c0.1-0.1,0.2-0.1,0.4-0.2c0.1,0,0.1-0.1,0.2-0.1
		c0.1-0.1,0.3-0.1,0.4-0.2l0.2-0.1c0.2-0.1,0.4-0.1,0.6-0.2c0.4-0.1,0.7-0.4,0.9-0.9c1.6-4.9,6.2-8.3,11.5-8.3
		c3.9,0,7.6,1.9,9.8,5.1c0.3,0.4,0.8,0.6,1.2,0.6c0.2,0,0.4,0,0.6-0.1h0.1l0,0c0.1,0,0.3,0,0.4,0c0.1,0,0.3,0,0.4,0h0.1
		c0.1,0,0.1,0,0.2,0c0.2,0,0.4,0,0.6,0.1l0,0c3.6,0.5,6.5,3,7.7,6.5l0.4,1.2H101L101.8,138.3z M66.1,95.9c0-1.1,0.9-2,2-2h20.6
		c1.1,0,2,0.9,2,2v43.8H66.1V95.9L66.1,95.9z M17.4,138.5c1.2-3.5,4-6,7.6-6.5l0,0l0,0h0.1c0.2,0,0.4,0,0.6-0.1c0.1,0,0.1,0,0.2,0
		H26c0.1,0,0.3,0,0.4,0s0.3,0,0.4,0l0,0h0.1c0.2,0,0.4,0,0.6,0.1c0.5,0.1,1-0.2,1.2-0.5c2.3-3.2,5.9-5.1,9.8-5.1
		c5.2,0,9.8,3.3,11.5,8.3c0,0.1,0.1,0.2,0.1,0.3c0.2,0.3,0.4,0.5,0.7,0.6c0.2,0.1,0.4,0.1,0.6,0.2c0.1,0,0.1,0,0.1,0.1l0,0
		c0.1,0.1,0.3,0.1,0.4,0.2c0.1,0,0.1,0.1,0.2,0.1c0.1,0.1,0.2,0.1,0.4,0.2l0,0c0,0,0.1,0,0.1,0.1c0.2,0.1,0.3,0.2,0.5,0.3l0,0
		c0.1,0.1,0.3,0.2,0.4,0.3l0.1,0.1l0,0c0.1,0.1,0.2,0.2,0.3,0.3l0.1,0.1c0.1,0.1,0.2,0.2,0.3,0.3l0,0l0.1,0.1
		c0.1,0.1,0.2,0.3,0.3,0.4l1.1,1.4H17L17.4,138.5z M143.5,147.3H13.3c-1.4,0-2.5-1.1-2.5-2.5s1.1-2.5,2.5-2.5h130.2
		c1.4,0,2.5,1.1,2.5,2.5S144.9,147.3,143.5,147.3z"/>
	<linearGradient id="SVGID_5_" gradientUnits="userSpaceOnUse" x1="1" y1="107" x2="150.0034" y2="107">
		<stop  offset="0" style="stop-color:#E1CEDF"/>
		<stop  offset="1" style="stop-color:#E2F0EE"/>
	</linearGradient>
	<path class="st4" d="M117.2,96.3H104c-1.3,0-2.4,1.1-2.4,2.4v16.6c0,1.3,1.1,2.4,2.4,2.4h13.2c1.3,0,2.4-1.1,2.4-2.4V98.6
		C119.5,97.3,118.5,96.3,117.2,96.3z M116.9,114.9h-12.6v-16h12.6V114.9z"/>
	<linearGradient id="SVGID_6_" gradientUnits="userSpaceOnUse" x1="1" y1="107" x2="150.0034" y2="107">
		<stop  offset="0" style="stop-color:#E1CEDF"/>
		<stop  offset="1" style="stop-color:#E2F0EE"/>
	</linearGradient>
	<path class="st5" d="M52.8,96.3H39.6c-1.3,0-2.4,1.1-2.4,2.4v16.6c0,1.3,1.1,2.4,2.4,2.4h13.2c1.3,0,2.4-1.1,2.4-2.4V98.6
		C55.2,97.3,54.1,96.3,52.8,96.3z M52.5,114.9H39.9v-16h12.6V114.9z"/>
	<linearGradient id="SVGID_7_" gradientUnits="userSpaceOnUse" x1="1" y1="84" x2="150.0034" y2="84">
		<stop  offset="0" style="stop-color:#E1CEDF"/>
		<stop  offset="1" style="stop-color:#E2F0EE"/>
	</linearGradient>
	<path class="st6" d="M134.2,82.9c-0.2-0.3-0.5-0.5-0.9-0.7c0,0-0.1,0-0.1-0.1c-1.1-0.3-1.9-0.6-2.5-1c-0.3-0.2-0.6-0.4-0.9-0.6
		c-0.4-0.3-0.6-0.7-0.9-1.2c-0.3-0.6-0.6-1.4-0.9-2.5c-0.1-0.5-0.4-0.8-0.8-1.1c-0.4-0.3-0.8-0.4-1.3-0.4c-0.9,0-1.8,0.6-2,1.5
		c-1.1,3.6-1.7,4.1-5.2,5.2c-0.9,0.3-1.5,1.1-1.5,2s0.6,1.8,1.5,2c3.6,1.1,4.1,1.7,5.2,5.2c0.3,0.9,1.1,1.5,2,1.5s1.8-0.6,2-1.5
		c0.3-1.1,0.6-1.9,0.9-2.5c0.3-0.5,0.5-0.9,0.9-1.2c0.3-0.2,0.5-0.4,0.9-0.6c0.6-0.3,1.4-0.6,2.5-1c0.1,0,0.1,0,0.1-0.1
		c0.4-0.1,0.7-0.4,0.9-0.7c0.3-0.4,0.5-0.8,0.5-1.3C134.6,83.7,134.5,83.2,134.2,82.9z M129.7,84.6l-0.6,0.3
		c-0.1,0.1-0.2,0.1-0.3,0.2c-1,0.6-1.6,1.3-2.2,2.3l-0.8,1.4l-0.8-1.4c-0.6-1.1-1.4-1.9-2.5-2.5l-1.4-0.8l1.4-0.8
		c1.1-0.6,1.9-1.4,2.5-2.5l0.8-1.4l0.8,1.4c0.6,1,1.2,1.7,2.2,2.3c0.1,0.1,0.2,0.1,0.3,0.2l0.6,0.3l0.8,0.4L129.7,84.6z"/>
	<linearGradient id="SVGID_8_" gradientUnits="userSpaceOnUse" x1="1" y1="21.3" x2="150.0034" y2="21.3">
		<stop  offset="0" style="stop-color:#E1CEDF"/>
		<stop  offset="1" style="stop-color:#E2F0EE"/>
	</linearGradient>
	<path class="st7" d="M138,19.1c-4.4-1.4-5.2-2.1-6.5-6.5c-0.3-1-1.2-1.6-2.2-1.6s-1.9,0.6-2.2,1.6c-1.4,4.4-2.1,5.2-6.5,6.5
		c-1,0.3-1.6,1.2-1.6,2.2s0.6,1.9,1.6,2.2c2.2,0.7,3.5,1.2,4.4,2.1s1.4,2.2,2.1,4.4c0.3,1,1.2,1.6,2.2,1.6s1.9-0.6,2.2-1.6
		c1.4-4.4,2.1-5.2,6.5-6.5c1-0.3,1.6-1.2,1.6-2.2C139.6,20.2,139,19.4,138,19.1z M134.1,22.1c-2,0.9-3.1,2-4,4l-0.8,1.7l-0.8-1.7
		c-0.9-2-2-3.1-4-4l-1.7-0.8l1.7-0.8c2-0.9,3.1-2,4-4l0.8-1.7l0.8,1.7c0.9,2,2,3.1,4,4l1.7,0.8L134.1,22.1z"/>
	<linearGradient id="SVGID_9_" gradientUnits="userSpaceOnUse" x1="1" y1="118.4" x2="150.0034" y2="118.4">
		<stop  offset="0" style="stop-color:#E1CEDF"/>
		<stop  offset="1" style="stop-color:#E2F0EE"/>
	</linearGradient>
	<path class="st8" d="M17.4,116.4c-3.6-1.1-4.1-1.7-5.2-5.2c-0.3-0.9-1.1-1.5-2-1.5s-1.8,0.6-2,1.5c-1.1,3.6-1.7,4.1-5.2,5.2
		c-0.9,0.3-1.5,1.1-1.5,2s0.6,1.8,1.5,2c3.6,1.1,4.1,1.7,5.2,5.2c0.3,0.9,1.1,1.5,2,1.5s1.8-0.6,2-1.5c1.1-3.6,1.7-4.1,5.2-5.2
		c0.9-0.3,1.5-1.1,1.5-2S18.3,116.6,17.4,116.4z M13.4,119.2c-1.1,0.6-1.9,1.4-2.5,2.5l-0.8,1.4l-0.8-1.4c-0.6-1.1-1.4-1.9-2.5-2.5
		l-1.4-0.8l1.4-0.8c1.1-0.6,1.9-1.4,2.5-2.5l0.8-1.4l0.8,1.4c0.6,1.1,1.4,1.9,2.5,2.5l1.4,0.8L13.4,119.2z"/>
	<linearGradient id="SVGID_10_" gradientUnits="userSpaceOnUse" x1="1" y1="118.4" x2="150.0034" y2="118.4">
		<stop  offset="0" style="stop-color:#E1CEDF"/>
		<stop  offset="1" style="stop-color:#E2F0EE"/>
	</linearGradient>
	<path class="st9" d="M85.5,116.2v4.4c0,0.7-0.6,1.3-1.3,1.3c-0.7,0-1.3-0.6-1.3-1.3v-4.4c0-0.7,0.6-1.3,1.3-1.3
		C84.9,114.9,85.5,115.5,85.5,116.2z"/>
</g>
</svg>
