<?xml version="1.0" encoding="utf-8"?>
<!-- Generator: Adobe Illustrator 21.0.2, SVG Export Plug-In . SVG Version: 6.00 Build 0)  -->
<svg version="1.1" id="plan" xmlns="http://www.w3.org/2000/svg" xmlns:xlink="http://www.w3.org/1999/xlink" x="0px" y="0px"
	 viewBox="0 0 150 150" style="enable-background:new 0 0 150 150;" xml:space="preserve">
<style type="text/css">
	.st0{fill:#FFFFFF;}
</style>
<g>
	<path class="st0" d="M150,23.2v118.2c0,3-2.5,5.5-5.5,5.5H21.2c-7.7,0-13.9-6.2-13.9-13.9v-25.3c0-0.7,0.5-1.2,1.2-1.2
		s1.2,0.5,1.2,1.2v17.2l1.5-1.5c2.6-2.7,6.2-4.3,10-4.3c3.7,0,7.4,1.5,10,4.2l1.5,1.5V17.2c0-6.3-5.1-11.6-11.3-11.7
		c-3.1-0.1-6,1.1-8.2,3.3S9.7,13.9,9.7,17v77.8c0,0.7-0.5,1.2-1.2,1.2s-1.2-0.5-1.2-1.2V17c0-3.8,1.5-7.3,4.2-9.9
		c2.7-2.6,6.2-4,10-4c0.2,0,0.5,0,0.7,0c0,0,0.1,0,0.1,0l0.2,0c0.1,0,0.3,0,0.4,0c0,0,0.1,0,0.1,0l0.2,0c0.1,0,0.2,0,0.3,0
		c0.1,0,0.1,0,0.2,0l0.2,0c0.1,0,0.2,0,0.3,0.1c0.1,0,0.1,0,0.2,0l0.2,0.1c0.1,0,0.2,0,0.3,0.1c0.1,0,0.1,0,0.2,0.1l0.2,0.1
		c0.1,0,0.2,0.1,0.3,0.1c0.1,0,0.1,0,0.2,0.1l0.2,0.1C25.9,3.9,26,4,26.1,4c0.1,0,0.1,0,0.2,0.1l0.2,0.1c0.1,0,0.2,0.1,0.2,0.1
		c0.1,0,0.1,0.1,0.2,0.1L27,4.4c0.1,0,0.2,0.1,0.2,0.1c0.1,0,0.1,0.1,0.2,0.1l0.2,0.1c0.1,0,0.2,0.1,0.2,0.1c0.1,0,0.1,0.1,0.2,0.1
		L28.2,5c0.1,0,0.1,0.1,0.2,0.1c0.1,0,0.1,0.1,0.2,0.1l0.2,0.1c0.1,0,0.1,0.1,0.2,0.1c0.1,0,0.1,0.1,0.2,0.1l0.1,0.1
		c0.1,0.1,0.1,0.1,0.2,0.2C29.6,6,29.6,6,29.7,6.1l0.1,0.1C29.9,6.2,30,6.3,30,6.4c0.1,0.1,0.1,0.1,0.2,0.2l0.1,0.1
		c0.1,0.1,0.1,0.1,0.2,0.2c0.1,0.1,0.1,0.1,0.2,0.2l0.1,0.1c0.1,0.1,0.1,0.1,0.2,0.2c0.1,0.1,0.1,0.1,0.2,0.2l0.1,0.1
		c0.1,0.1,0.1,0.1,0.2,0.2c0.1,0.1,0.1,0.1,0.2,0.2L31.7,8c0.1,0.1,0.1,0.1,0.2,0.2c0.1,0.1,0.1,0.1,0.2,0.2l0,0.1
		c0.1,0.1,0.1,0.2,0.2,0.2c0.1,0.1,0.1,0.1,0.2,0.2l0,0.1c0.1,0.1,0.1,0.2,0.2,0.3c0,0.1,0.1,0.2,0.1,0.2l0,0.1
		C32.9,9.7,33,9.8,33,9.9c0.1,0.1,0.1,0.2,0.2,0.3c0.1,0.1,0.1,0.2,0.2,0.3c0.1,0.1,0.1,0.2,0.2,0.3c0.1,0.1,0.1,0.2,0.2,0.3
		c0,0.1,0.1,0.2,0.1,0.3c0,0.1,0.1,0.2,0.1,0.3c0,0.1,0.1,0.2,0.1,0.3c0,0.1,0.1,0.2,0.1,0.3c0,0.1,0.1,0.2,0.1,0.3
		c0,0.1,0.1,0.2,0.1,0.3c0,0.1,0.1,0.2,0.1,0.3c0,0.1,0.1,0.2,0.1,0.3c0,0.1,0.1,0.2,0.1,0.3c0,0.1,0.1,0.2,0.1,0.3
		c0,0.1,0,0.2,0.1,0.3c0,0.1,0,0.2,0.1,0.3c0,0.1,0,0.2,0.1,0.3c0,0.1,0,0.2,0,0.4c0,0.1,0,0.2,0,0.3c0,0.1,0,0.2,0,0.4
		c0,0.1,0,0.2,0,0.3l0,1h81.7c0.6,0,1.1,0.4,1.2,1c0,0,0,0.1,0,0.1c0,0,0,0.1,0,0.1c0,0.7-0.5,1.2-1.2,1.2H35.1v108.6
		c0,0.9-0.7,1.6-1.6,1.6c-0.7,0-1.3-0.4-1.5-1.1c-1.6-4.6-6-7.7-10.8-7.7c-6.3,0-11.5,5.1-11.5,11.5c0,6.3,5.1,11.5,11.5,11.5h123.3
		c1.7,0,3.1-1.4,3.1-3.1V23.2c0-1.7-1.4-3.1-3.1-3.1h-14.8c-0.4,0-0.8-0.2-1-0.6c0,0,0.1,0,0.1-0.1l1.6-0.8l-1.6-0.7
		c0.2-0.2,0.5-0.3,0.8-0.3h14.8c1.5,0,2.9,0.6,3.9,1.6C149.4,20.4,150,21.7,150,23.2z"/>
	<path class="st0" d="M134.4,44.5v-6.4c0-1-0.8-1.9-1.9-1.9h-24.3v29.7c0,0.7-0.5,1.2-1.2,1.2c-0.7,0-1.2-0.5-1.2-1.2V36.2H78.2v6.7
		c0,0.7-0.5,1.2-1.2,1.2c-0.7,0-1.2-0.5-1.2-1.2v-6.7H46.5c-1,0-1.9,0.8-1.9,1.9v26h31.1v-8.4c0-0.7,0.5-1.2,1.2-1.2
		c0.7,0,1.2,0.5,1.2,1.2v9.6c0,0.7-0.5,1.2-1.2,1.2H44.6v32.1h7.6c0.7,0,1.2,0.5,1.2,1.2c0,0.7-0.5,1.2-1.2,1.2h-7.6v23
		c0,1,0.8,1.9,1.9,1.9h34.2v-24.9H66.4c-0.7,0-1.2-0.5-1.2-1.2c0-0.7,0.5-1.2,1.2-1.2h37.7c0.7,0,1.2,0.5,1.2,1.2
		c0,0.7-0.5,1.2-1.2,1.2h-21V126h49.4c1,0,1.9-0.8,1.9-1.9v-23h-10.3c-0.7,0-1.2-0.5-1.2-1.2c0-0.7,0.5-1.2,1.2-1.2h10.3v-19h-27.4
		c-0.7,0-1.2-0.5-1.2-1.2c0-0.7,0.5-1.2,1.2-1.2h27.4V62.4c0-0.7,0.5-1.2,1.2-1.2c0.7,0,1.2,0.5,1.2,1.2v61.7c0,2.4-1.9,4.3-4.3,4.3
		h-86c-2.4,0-4.3-1.9-4.3-4.3v-86c0-2.4,1.9-4.3,4.3-4.3h86c2.4,0,4.3,1.9,4.3,4.3v6.4c0,0.7-0.5,1.2-1.2,1.2
		c-0.3,0-0.6-0.1-0.9-0.4C134.5,45.1,134.4,44.8,134.4,44.5z"/>
	<path class="st0" d="M65.9,77.4c-4.2-1.3-4.9-2-6.3-6.3c-0.3-0.9-1.1-1.5-2.1-1.5c-1,0-1.8,0.6-2.1,1.5c-1.3,4.2-2,4.9-6.3,6.3
		c-0.9,0.3-1.5,1.1-1.5,2.1c0,1,0.6,1.8,1.5,2.1c2.1,0.7,3.4,1.2,4.2,2c0.9,0.9,1.4,2.1,2,4.2c0.3,0.9,1.1,1.6,2.1,1.6
		c1,0,1.8-0.6,2.1-1.6c1.3-4.2,2-4.9,6.3-6.3c0.9-0.3,1.6-1.1,1.6-2.1C67.4,78.5,66.8,77.7,65.9,77.4z M62.1,80.2
		c-1.9,0.9-3,2-3.9,3.9l-0.8,1.6l-0.8-1.6c-0.9-1.9-2-3-3.9-3.9l-1.6-0.8l1.6-0.8c1.9-0.9,3-2,3.9-3.9l0.8-1.6l0.8,1.6
		c0.9,1.9,2,3,3.9,3.9l1.6,0.8L62.1,80.2z"/>
	<path class="st0" d="M130,112.7c-0.2-0.3-0.5-0.5-0.9-0.6c0,0-0.1,0-0.1-0.1c-1-0.3-1.8-0.6-2.4-0.9c-0.3-0.2-0.6-0.4-0.9-0.6
		c-0.3-0.3-0.6-0.7-0.9-1.1c-0.3-0.6-0.6-1.4-0.9-2.4c-0.1-0.4-0.4-0.8-0.7-1c-0.3-0.3-0.8-0.4-1.2-0.4c-0.9,0-1.7,0.6-2,1.4
		c-1.1,3.4-1.6,4-5,5c-0.9,0.3-1.4,1.1-1.4,2c0,0.9,0.6,1.7,1.4,2c3.4,1.1,4,1.6,5,5c0.3,0.9,1.1,1.4,2,1.4c0.9,0,1.7-0.6,2-1.4
		c0.3-1,0.6-1.8,0.9-2.4c0.2-0.5,0.5-0.8,0.9-1.1c0.2-0.2,0.5-0.4,0.9-0.6c0.6-0.3,1.4-0.6,2.4-0.9c0,0,0.1,0,0.1-0.1
		c0.3-0.1,0.6-0.4,0.9-0.6c0.3-0.3,0.4-0.8,0.4-1.3C130.5,113.5,130.3,113,130,112.7z M125.8,114.4l-0.6,0.3
		c-0.1,0.1-0.2,0.1-0.3,0.2c-0.9,0.6-1.6,1.3-2.1,2.2l-0.7,1.3l-0.7-1.3c-0.6-1.1-1.3-1.8-2.4-2.4l-1.3-0.7l1.3-0.7
		c1.1-0.6,1.8-1.3,2.4-2.4l0.7-1.3l0.7,1.3c0.6,1,1.2,1.7,2.1,2.2c0.1,0.1,0.2,0.1,0.3,0.2l0.6,0.3l0.8,0.4L125.8,114.4z"/>
	<path class="st0" d="M133.8,17.7c-0.3-0.5-0.7-0.9-1.3-1.1c-4.2-1.3-4.9-2-6.3-6.3c-0.3-0.9-1.1-1.5-2.1-1.5c-1,0-1.8,0.6-2.1,1.5
		c-1.3,4.2-2,4.9-6.3,6.3c-0.6,0.2-1,0.6-1.3,1.1c-0.2,0.3-0.3,0.7-0.3,1c0,0.5,0.2,1,0.5,1.4c0.3,0.3,0.6,0.6,1.1,0.7
		c2.1,0.7,3.4,1.2,4.2,2c0.9,0.9,1.4,2.1,2,4.2c0.3,0.9,1.1,1.5,2.1,1.5c1,0,1.8-0.6,2.1-1.5c1.3-4.2,2-4.9,6.3-6.3
		c0.4-0.1,0.8-0.4,1.1-0.7c0.3-0.4,0.5-0.9,0.5-1.4C134,18.4,133.9,18,133.8,17.7z M124.9,23.4l-0.8,1.6l-0.8-1.6
		c-0.9-1.9-2-3-3.9-3.9l-1.5-0.7l-0.1-0.1l0.1-0.1l1.5-0.7c1.9-0.9,3-2,3.9-3.9l0.8-1.6l0.8,1.6c0.9,1.9,2,3,3.9,3.9l0.1,0l1.6,0.7
		l-1.6,0.8c0,0-0.1,0-0.1,0.1C126.8,20.5,125.8,21.5,124.9,23.4z"/>
	<path class="st0" d="M15.4,99.5c-3.4-1.1-4-1.6-5-5c-0.3-0.9-1.1-1.4-2-1.4c-0.9,0-1.7,0.6-2,1.4c-1.1,3.4-1.6,4-5,5
		c-0.9,0.3-1.4,1.1-1.4,2c0,0.9,0.6,1.7,1.4,2c3.4,1.1,4,1.6,5,5c0.3,0.9,1.1,1.4,2,1.4c0.9,0,1.7-0.6,2-1.4c1.1-3.4,1.6-4,5-5
		c0.9-0.3,1.4-1.1,1.4-2C16.8,100.5,16.3,99.8,15.4,99.5z M11.6,102.2c-1.1,0.6-1.8,1.3-2.4,2.4l-0.7,1.3l-0.7-1.3
		c-0.6-1.1-1.3-1.8-2.4-2.4l-1.3-0.7l1.3-0.7c1.1-0.6,1.8-1.3,2.4-2.4L8.4,97l0.7,1.3c0.6,1.1,1.3,1.8,2.4,2.4l1.3,0.7L11.6,102.2z"
		/>
</g>
</svg>
