<?xml version="1.0" encoding="iso-8859-1"?>
<!-- Generator: Adobe Illustrator 21.0.2, SVG Export Plug-In . SVG Version: 6.00 Build 0)  -->
<svg version="1.1" id="&#x421;&#x43B;&#x43E;&#x439;_1"
	 xmlns="http://www.w3.org/2000/svg" xmlns:xlink="http://www.w3.org/1999/xlink" x="0px" y="0px" viewBox="0 0 255.12 141.73"
	 style="enable-background:new 0 0 255.12 141.73;" xml:space="preserve">
<g>
	<g>
		<defs>
			<rect id="SVGID_1_" x="62.985" y="6.73" width="128.909" height="129"/>
		</defs>
		<clipPath id="SVGID_2_">
			<use xlink:href="#SVGID_1_"  style="overflow:visible;"/>
		</clipPath>
		<path style="clip-path:url(#SVGID_2_);fill-rule:evenodd;clip-rule:evenodd;" d="M142.528,70.998l45.829-45.826
			c4.22-4.22,4.22-11.059,0-15.276c-4.216-4.22-11.056-4.22-15.276,0l-45.829,45.829L81.423,9.895c-4.216-4.22-11.056-4.22-15.273,0
			c-4.219,4.217-4.219,11.056,0,15.276l45.826,45.826L66.15,116.827c-4.219,4.22-4.219,11.059,0,15.276
			c4.217,4.22,11.057,4.22,15.273,0l45.829-45.829l45.829,45.829c4.22,4.22,11.06,4.22,15.276,0c4.22-4.22,4.22-11.056,0-15.276
			L142.528,70.998z M142.528,70.998"/>
	</g>
</g>
</svg>
