<?xml version="1.0" encoding="utf-8"?>
<!-- Generator: Adobe Illustrator 21.0.2, SVG Export Plug-In . SVG Version: 6.00 Build 0)  -->
<svg version="1.1" id="decor" xmlns="http://www.w3.org/2000/svg" xmlns:xlink="http://www.w3.org/1999/xlink" x="0px" y="0px"
	 viewBox="0 0 150 150" style="enable-background:new 0 0 150 150;" xml:space="preserve">
<style type="text/css">
	.st0{fill:url(#SVGID_1_);}
	.st1{fill:#FFFFFF;}
</style>
<linearGradient id="SVGID_1_" gradientUnits="userSpaceOnUse" x1="0.2" y1="74.95" x2="150.4" y2="74.95">
	<stop  offset="0" style="stop-color:#E1CEDF"/>
	<stop  offset="1" style="stop-color:#E2F0EE"/>
</linearGradient>
<path class="st0" d="M146.7,89.7l-0.5-0.2V76.2c0-0.7-0.3-1.4-0.8-1.9l-0.3-0.3l2-8.5c0.6-2.6,0-5.3-1.6-7.4c-0.5-0.6-1-1.1-1.6-1.6
	c-0.2-0.2-0.5-0.3-0.7-0.5c-0.3-0.2-0.5-0.3-0.8-0.4c0.2-0.3,0.4-0.5,0.7-0.7c0.2-0.2,0.5-0.4,0.9-0.5c0.6-0.3,1.4-0.6,2.4-0.9
	c0.9-0.3,1.5-1.1,1.5-2s-0.6-1.8-1.5-2c-3.6-1.1-4.1-1.7-5.2-5.2c-0.3-0.9-1.1-1.5-2-1.5s-1.8,0.6-2,1.5c-1.1,3.6-1.7,4.1-5.2,5.2
	c-0.9,0.3-1.5,1.1-1.5,2s0.6,1.8,1.5,2c0.8,0.2,1.5,0.5,2,0.7c0.4,0.2,0.7,0.3,1,0.5s0.5,0.4,0.7,0.6c-0.3,0.1-0.6,0.2-0.9,0.4
	c-0.3,0.1-0.5,0.3-0.8,0.5c-0.7,0.5-1.4,1.1-2,1.8c-1.7,2.1-2.3,4.8-1.6,7.4l2,8.5l-0.3,0.3c-0.5,0.5-0.8,1.2-0.8,1.9v13.3l-0.5,0.2
	c-2,0.9-3.3,2.9-3.3,5.1c0,3.1,2.5,5.6,5.6,5.7h1.6l-0.8,1.3c-5,8.2-14,13.2-23.5,13.2H82.2l-0.2-0.6c-0.7-2.3-2.7-4.2-5-4.9
	l-0.6-0.2V103l0.6-0.2c2.1-0.6,3.9-2.1,4.7-4.1l0.2-0.5h11.4c2.9,0,5.8-0.8,8.3-2.2l1.1-0.6l0.2,1.3c0.2,1.1,0.7,2.1,1.3,3
	c1.3,1.6,3.2,2.6,5.3,2.6c2.1,0,4-0.9,5.3-2.6c1.3-1.6,1.7-3.7,1.3-5.7l-2.6-10.8h1.8c3.1,0,5.7-2.5,5.7-5.7c0-2.4-1.5-4.5-3.7-5.3
	l-0.6-0.2V60.3c0-0.7-0.3-1.3-0.7-1.8l-0.3-0.3l1.9-7.8c0.6-2.4,0-5-1.5-6.9c-1.6-2-3.9-3.1-6.4-3.1s-4.8,1.1-6.4,3.1
	s-2.1,4.5-1.5,6.9l1.9,7.8l-0.3,0.3c-0.5,0.5-0.7,1.2-0.7,1.8V72l-0.6,0.2c-2.2,0.8-3.7,2.9-3.7,5.3c0,3.1,2.5,5.7,5.7,5.7h1.8
	l-1.9,8.1l-0.3,0.2c-0.1,0.1-0.2,0.1-0.2,0.2c-2.6,2.6-6.1,4.1-9.8,4.1h-11L82.3,95c-0.1-0.9-0.4-1.7-0.8-2.5L81.2,92l0.4-0.5
	c1.1-1.5,1.7-3.2,1.7-5.1c0-0.4,0-0.8-0.1-1.1l-0.1-0.7l0.7-0.2c2.5-0.9,4.2-3.3,4.2-5.9c0-2.4-1.3-4.5-3.4-5.6L84,72.6l0.1-0.6
	c0.2-1.2,0.2-2.5-0.1-3.8l-3.6-15c-0.4-1.8-1.7-3.3-3.5-3.9L76.3,49V22.7l0.6-0.2c3.1-0.9,5.3-3.8,5.3-7.1c0-0.2,0-0.4,0-0.6
	L82.1,14l0.9,0c5.3-1.1,9.1-5.8,9.1-11.2c0-1.5-1.2-2.8-2.8-2.8H76c-0.7,0-1.3,0.6-1.3,1.3s0.6,1.3,1.3,1.3h13.6l-0.1,1
	c-0.4,4.5-4.2,7.9-8.7,7.9h-0.4c-0.5,0-0.9,0.2-1.1,0.6C79,12.5,79,13,79.2,13.4c0.3,0.6,0.5,1.3,0.5,2.1c0,2.6-2.1,4.7-4.7,4.7
	s-4.7-2.1-4.7-4.7c0-0.7,0.2-1.4,0.5-2.1c0.2-0.4,0.2-0.9-0.1-1.3c-0.2-0.4-0.7-0.6-1.1-0.6h-0.4c-4.5,0-8.2-3.4-8.7-7.9l-0.1-1h7.2
	c0.7,0,1.3-0.6,1.3-1.3S68.3,0,67.6,0h-7c-1.5,0-2.8,1.2-2.8,2.8c0,5.4,3.8,10.1,9.1,11.2l0.8,0.2L67.6,15c0,0.2,0,0.4,0,0.6
	c0,3.3,2.2,6.2,5.3,7.1l0.6,0.2v14.9c-0.3-0.1-0.6-0.2-0.9-0.3s-0.6-0.2-0.9-0.4c-1.8-0.8-2.3-1.8-3.1-4.5c-0.1-0.5-0.4-0.8-0.8-1.1
	c-0.4-0.3-0.8-0.4-1.3-0.4c-0.9,0-1.8,0.6-2,1.5c-1.1,3.6-1.7,4.1-5.2,5.2c-0.9,0.3-1.5,1.1-1.5,2s0.6,1.8,1.5,2
	c3.6,1.1,4.1,1.7,5.2,5.2c0.3,0.9,1.1,1.5,2,1.5s1.8-0.6,2-1.5c0.8-2.7,1.4-3.7,3.1-4.5c0.3-0.1,0.6-0.2,0.9-0.4
	c0.3-0.1,0.6-0.2,0.9-0.3V49l-0.6,0.2c-1.7,0.6-3,2.1-3.5,3.9l-1,4.4c-0.1,0.3,0,0.7,0.2,1s0.5,0.5,0.8,0.6s0.7,0,1-0.2
	s0.5-0.5,0.6-0.8l1-4.4c0.3-1.3,1.5-2.2,2.8-2.2s2.5,0.9,2.8,2.2l3.6,15c0.3,1.4,0.2,2.9-0.4,4.2c-0.2,0.4-0.2,0.8,0.1,1.2
	s0.6,0.6,1,0.7c1.9,0.2,3.3,1.8,3.3,3.6c0,2-1.6,3.6-3.6,3.6h-0.4c-0.5,0-0.9,0.2-1.1,0.6s-0.3,0.9-0.1,1.3c0.4,0.8,0.6,1.6,0.6,2.5
	c0,1-0.3,2-0.8,2.9L79.3,90l-0.8-0.4c-1.1-0.6-2.3-0.9-3.6-0.9c-1.3,0-2.5,0.3-3.6,0.9L70.5,90l-0.4-0.7c-0.5-0.9-0.8-1.8-0.8-2.9
	c0-0.9,0.2-1.7,0.6-2.5c0.2-0.4,0.2-0.9-0.1-1.3c-0.2-0.4-0.7-0.6-1.1-0.6h-0.4c-2,0-3.6-1.6-3.6-3.6c0-1.9,1.4-3.4,3.3-3.6
	c0.4,0,0.8-0.3,1-0.7s0.2-0.8,0.1-1.2c-0.6-1.3-0.7-2.8-0.4-4.2l0.7-2.8c0.1-0.3,0-0.7-0.2-1s-0.5-0.5-0.8-0.6s-0.7,0-1,0.2
	s-0.5,0.5-0.6,0.8L66,68.1c-0.3,1.3-0.3,2.5-0.1,3.8l0.1,0.6l-0.6,0.3C63.3,73.9,62,76,62,78.4c0,2.7,1.7,5.1,4.2,5.9l0.7,0.2
	l-0.1,0.7c-0.1,0.4-0.1,0.7-0.1,1.1c0,1.8,0.6,3.6,1.7,5.1l0.4,0.5l-0.3,0.5c-0.4,0.8-0.7,1.6-0.8,2.5l-0.1,0.8h-11
	c-3.9,0-7.6-1.7-10.2-4.6L46.3,91l-1.9-7.8h1.8c3.1,0,5.7-2.5,5.7-5.7c0-2.4-1.5-4.5-3.7-5.3L47.6,72V60.3c0-0.7-0.3-1.3-0.7-1.8
	l-0.3-0.3l1.9-7.8c0.6-2.4,0-5-1.5-6.9c-1.6-2-3.9-3.1-6.4-3.1s-4.8,1.1-6.4,3.1c-1.6,2-2.1,4.5-1.5,6.9l1.9,7.8l-0.3,0.3
	c-0.5,0.5-0.7,1.2-0.7,1.8V72L33,72.2c-2.2,0.8-3.7,2.9-3.7,5.3c0,3.1,2.5,5.7,5.7,5.7h1.8L33.9,94c-0.5,2,0,4.1,1.3,5.7
	s3.2,2.6,5.3,2.6s4-0.9,5.3-2.6c0.7-0.9,1.1-1.9,1.3-3l0.2-1.3l1.1,0.6c2.5,1.5,5.4,2.2,8.3,2.2H68l0.2,0.5c0.9,2,2.6,3.6,4.7,4.1
	l0.6,0.2v6.1l-0.6,0.2c-2.4,0.7-4.3,2.5-5,4.9l-0.2,0.6H39.9c-9.7,0-18.5-5-23.5-13.2l-0.8-1.3h1.6c3.1,0,5.6-2.5,5.6-5.7
	c0-2.2-1.3-4.2-3.3-5.1l-0.5,0V76.2c0-0.7-0.3-1.4-0.8-1.9L17.9,74l2-8.5c0.6-2.6,0-5.3-1.6-7.4c-1.7-2.1-4.2-3.3-6.8-3.3
	c-2.7,0-5.2,1.2-6.8,3.3c-1.7,2.1-2.3,4.8-1.6,7.4l2,8.5l-0.3,0.3C4.3,74.8,4,75.5,4,76.2v13.3l-0.5,0.2c-2,0.9-3.3,2.9-3.3,5.1
	c0,3.1,2.5,5.7,5.7,5.7h1.8l-2.6,10.8c-0.5,2,0,4.1,1.3,5.7s3.2,2.6,5.3,2.6s4-0.9,5.3-2.6c1.3-1.6,1.7-3.7,1.3-5.7l-0.9-3.8
	l2.2,2.1c5.6,5.3,13,8.2,20.7,8.2h17.9v3c0,7,4.4,13.5,11,16l1.1,0.4l-0.7,0.9c-1,1.3-1.6,2.9-1.6,4.5c0,4,3.3,7.3,7.3,7.3
	s7.3-3.3,7.3-7.3c0-1.7-0.5-3.2-1.6-4.5l-0.7-0.9l1.1-0.4c6.6-2.5,11-9,11-16v-3h17.9c5.8,0,11.4-1.6,16.2-4.7
	c1.6-1,3.1-2.2,4.5-3.5l2.2-2.1l-0.9,3.8c-0.5,2,0,4.1,1.3,5.7s3.2,2.6,5.3,2.6s4-0.9,5.3-2.6c1.3-1.6,1.7-3.7,1.3-5.7l-2.6-10.8
	h1.8c0.8,0,1.5-0.1,2.2-0.4s1.3-0.7,1.8-1.2c1.1-1.1,1.7-2.5,1.7-4C150,92.7,148.7,90.6,146.7,89.7z M105.2,45L105.2,45
	c1-1.3,2.6-2.1,4.3-2.1c1.7,0,3.3,0.8,4.3,2.1s1.4,3,1,4.7l-1.9,7.8H106l-1.9-7.8C103.8,48.1,104.2,46.4,105.2,45z M114,60.2v11.7
	h-8.8V60.2H114z M103.8,80.6c-1.6,0-3-1.3-3-3c0-1.6,1.3-3,3-3h11.5c1.6,0,3,1.3,3,3c0,1.6-1.3,3-3,3H103.8z M105.6,94.7l2.4-10.2
	c0.2-0.7,0.8-1.2,1.5-1.2s1.3,0.5,1.5,1.2l2.4,10.2c0.3,1.2,0,2.5-0.8,3.4c-0.8,1-1.9,1.5-3.2,1.5c-1.2,0-2.4-0.6-3.2-1.5
	C105.6,97.1,105.3,95.9,105.6,94.7z M70,40.5c-1.1,0.6-1.9,1.4-2.5,2.5l-0.8,1.4L66,43c-0.6-1.1-1.4-1.9-2.5-2.5l-1.4-0.8l1.4-0.8
	c1.1-0.6,1.9-1.4,2.5-2.5l0.8-1.4l0.8,1.4c0.6,1.1,1.4,1.9,2.5,2.5l1.4,0.8L70,40.5z M36.2,45c1-1.3,2.6-2.1,4.3-2.1
	s3.3,0.8,4.3,2.1s1.4,3,1,4.7l-1.9,7.8H37l-1.9-7.8C34.7,48.1,35.1,46.4,36.2,45z M44.9,60.2v11.7H36V60.2H44.9z M34.7,80.6
	c-1.6,0-3-1.3-3-3c0-1.6,1.3-3,3-3h11.5c1.6,0,3,1.3,3,3c0,1.6-1.3,3-3,3H34.7z M43.6,98.1c-0.4,0.5-0.9,0.9-1.4,1.1
	c-0.5,0.3-1.1,0.4-1.8,0.4c-1.2,0-2.4-0.6-3.2-1.5c-0.8-1-1-2.2-0.8-3.4L39,84.4c0.2-0.7,0.8-1.2,1.5-1.2s1.3,0.5,1.5,1.2l2.4,10.2
	C44.7,95.9,44.4,97.1,43.6,98.1z M6.7,59.6c0.6-0.7,1.3-1.3,2.1-1.7c0.8-0.4,1.7-0.6,2.6-0.6c1.9,0,3.6,0.8,4.7,2.3
	c1.2,1.5,1.6,3.3,1.1,5.2l-2,8.6H7.6l-2-8.6C5.1,63,5.5,61.1,6.7,59.6z M16.3,76v13.2H6.5V76H16.3L16.3,76z M5.7,97.8
	c-1.6,0-3-1.3-3-3c0-1.6,1.3-3,3-3h11.5c1.6,0,3,1.3,3,3c0,1.6-1.3,3-3,3H5.7z M14.6,115.4c-0.8,1-1.9,1.5-3.2,1.5
	c-1.2,0-2.4-0.6-3.2-1.5c-0.8-1-1-2.2-0.8-3.4l2.4-10.2c0.2-0.7,0.8-1.2,1.5-1.2s1.3,0.5,1.5,1.2l2.4,10.2
	C15.6,113.1,15.4,114.4,14.6,115.4z M70.3,96.1c0-2.6,2.1-4.7,4.7-4.7s4.7,2.1,4.7,4.7s-2.1,4.7-4.7,4.7
	C72.4,100.7,70.3,98.6,70.3,96.1z M75,112c2.6,0,4.7,2.1,4.7,4.7s-2.1,4.7-4.7,4.7s-4.7-2.1-4.7-4.7S72.4,112,75,112z M75,147.3
	c-2.6,0-4.7-2.1-4.7-4.7s2.1-4.7,4.7-4.7s4.7,2.1,4.7,4.7S77.6,147.3,75,147.3z M89.5,120.8c0,8-6.5,14.5-14.5,14.5
	s-14.5-6.5-14.5-14.5v-3h7.2l0.2,0.7c0.8,3.3,3.7,5.6,7.1,5.6s6.3-2.3,7.1-5.6l0.2-0.7h7.2L89.5,120.8L89.5,120.8z M134.3,51.4
	l1.4-0.8c1.1-0.6,1.9-1.4,2.5-2.5l0.8-1.4l0.8,1.4c0.6,1.1,1.4,1.9,2.5,2.5l1.4,0.8l-1.4,0.8c-0.5,0.3-1,0.6-1.3,1
	c-0.2,0.2-0.5,0.5-0.7,0.8c-0.2,0.2-0.3,0.5-0.5,0.8v0.1l-0.7,1.3l-0.8-1.4l0,0c-0.2-0.3-0.4-0.6-0.6-0.8c-0.2-0.3-0.5-0.6-0.7-0.8
	c-0.4-0.3-0.8-0.6-1.2-0.9L134.3,51.4z M133.8,59.6c0.3-0.4,0.7-0.8,1.1-1.1c0.2-0.2,0.5-0.3,0.8-0.5c0.3-0.1,0.5-0.3,0.8-0.4
	c0.1,0.3,0.2,0.5,0.3,0.8v0.1c0.1,0.2,0.2,0.5,0.3,0.7c0.4,0.5,1,0.8,1.7,0.8c0.6,0,1.1-0.2,1.5-0.6c0.2-0.2,0.4-0.5,0.5-0.8v-0.1
	c0.1-0.3,0.2-0.5,0.2-0.7c0.3,0.1,0.5,0.3,0.8,0.5s0.5,0.4,0.7,0.6c0.2,0.2,0.4,0.4,0.6,0.7c1.2,1.5,1.6,3.3,1.1,5.2l-2,8.6h-7.7
	l-2-8.6C132.3,63,132.7,61.1,133.8,59.6z M143.5,76v13.2h-9.8V76H143.5L143.5,76z M141.8,115.4c-0.8,1-1.9,1.5-3.2,1.5
	c-1.2,0-2.4-0.6-3.2-1.5c-0.8-1-1-2.2-0.8-3.4l2.4-10.2c0.2-0.7,0.8-1.2,1.5-1.2s1.3,0.5,1.5,1.2l2.4,10.2
	C142.8,113.1,142.5,114.4,141.8,115.4z M144.3,97.8h-11.5c-1.6,0-3-1.3-3-3c0-1.6,1.3-3,3-3h11.5c1.6,0,3,1.3,3,3
	S146,97.8,144.3,97.8z"/>
<path class="st1" d="M108.5,21.7c-4.4-1.4-5.2-2.1-6.5-6.5c-0.3-1-1.2-1.6-2.2-1.6s-1.9,0.6-2.2,1.6c-1.4,4.4-2.1,5.2-6.5,6.5
	c-1,0.3-1.6,1.2-1.6,2.2s0.6,1.9,1.6,2.2c2.2,0.7,3.5,1.2,4.4,2.1s1.4,2.2,2.1,4.4c0.3,1,1.2,1.6,2.2,1.6s1.9-0.6,2.2-1.6
	c1.4-4.4,2.1-5.2,6.5-6.5c1-0.3,1.6-1.2,1.6-2.2C110.2,22.9,109.5,22,108.5,21.7z M104.6,24.7c-2,0.9-3.1,2-4,4l-0.8,1.7L99,28.8
	c-0.9-2-2-3.1-4-4L93.3,24l1.7-0.8c2-0.9,3.1-2,4-4l0.8-1.7l0.8,1.7c0.9,2,2,3.1,4,4l1.7,0.8L104.6,24.7z"/>
<path class="st1" d="M27.3,36.9c-4.4-1.4-5.2-2.1-6.5-6.5c-0.3-1-1.2-1.6-2.2-1.6s-1.9,0.6-2.2,1.6c-1.4,4.4-2.1,5.2-6.5,6.5
	c-1,0.3-1.6,1.2-1.6,2.2s0.6,1.9,1.6,2.2c2.2,0.7,3.5,1.2,4.4,2.1c0.9,0.9,1.4,2.2,2.1,4.4c0.3,1,1.2,1.6,2.2,1.6s1.9-0.6,2.2-1.6
	c1.4-4.4,2.1-5.2,6.5-6.5c1-0.3,1.6-1.2,1.6-2.2C28.9,38,28.3,37.2,27.3,36.9z M23.4,39.9c-2,0.9-3.1,2-4,4l-0.8,1.7l-0.8-1.7
	c-0.9-2-2-3.1-4-4L12,39l1.7-0.8c2-0.9,3.1-2,4-4l0.8-1.7l0.8,1.7c0.9,2,2,3.1,4,4L25,39L23.4,39.9z"/>
</svg>
