<?xml version="1.0" encoding="utf-8"?>
<!-- Generator: Adobe Illustrator 21.0.2, SVG Export Plug-In . SVG Version: 6.00 Build 0)  -->
<svg version="1.1" id="design" xmlns="http://www.w3.org/2000/svg" xmlns:xlink="http://www.w3.org/1999/xlink" x="0px" y="0px"
	 viewBox="0 0 150 150" style="enable-background:new 0 0 150 150;" xml:space="preserve">
<style type="text/css">
	.st0{fill:#FFFFFF;}
</style>
<g>
	<path class="st0" d="M147.6,104.6l-0.8-0.1v-8.1c0-1.6-1.3-2.8-2.8-2.8h-18.7c-1.6,0-2.8,1.3-2.8,2.8c0,1.3,0,3.4,0,3.6l0.4,4.8
		l-2.1-4.4c-0.7-1.5-2.2-2.5-3.9-2.5h-6.2V81.6c0-2.4-1.9-4.3-4.3-4.3H35.1c-2.4,0-4.3,1.9-4.3,4.3V98h-6.2c-2.4,0-4.3,2-4.3,4.4
		V125h-5.5V70.4h9.2c1.6,0,2.8-1.3,2.8-2.8V59c0-0.7-0.6-1.3-1.3-1.3s-1.3,0.6-1.3,1.3v8.7H2.7V40.5h21.4V48c0,0.7,0.6,1.3,1.3,1.3
		s1.3-0.6,1.3-1.3v-7.4c0-1.6-1.3-2.8-2.8-2.8H2.8c-1.6,0-2.8,1.3-2.8,2.8v26.9c0,1.6,1.3,2.8,2.8,2.8H12V125h-7
		c-1.6,0-2.8,1.3-2.8,2.8v4c0,1.6,1.3,2.8,2.8,2.8l28.3,0c1.6,0,2.8-1.3,2.8-2.8V127h50.1c0.7,0,1.3-0.6,1.3-1.3
		c0-0.7-0.6-1.3-1.3-1.3H36.2v-12.6h69.1v12.6h-7.2c-0.7,0-1.3,0.6-1.3,1.3c0,0.7,0.6,1.3,1.3,1.3h7.2v4.8c0,1.6,1.3,2.8,2.8,2.8
		h16.7c1.6,0,2.8-1.3,2.8-2.8V127h14.1v4.8c0,1.6,1.3,2.8,2.8,2.8h2.7c1.6,0,2.8-1.3,2.8-2.8v-24.4C150,106,149,104.8,147.6,104.6z
		 M20.2,132H4.9v-4.3h15.3V132z M33.5,132H22.9v-29.6c0-0.9,0.8-1.7,1.7-1.7h7.2c0.9,0,1.7,0.8,1.7,1.7V132z M58.8,109.1H45.2V95.6
		h13.6V109.1z M97.4,109.1H83.8V95.6h13.6V109.1z M105.3,102.3v6.8h-5.2V95.8c0-1.6-1.3-2.8-2.8-2.8H84c-1.6,0-2.8,1.3-2.8,2.8v13.4
		h-9.1V95.5c0-0.7-0.6-1.3-1.3-1.3c-0.7,0-1.3,0.6-1.3,1.3v13.7h-7.9V95.8c0-1.6-1.3-2.8-2.8-2.8H45.4c-1.6,0-2.8,1.3-2.8,2.8v13.4
		h-6.4v-6.8c0-1.6-0.9-3-2.3-3.8l-0.5-0.3V81.6c0-0.9,0.7-1.6,1.6-1.6h34.3v5.7c0,0.7,0.6,1.3,1.3,1.3c0.7,0,1.3-0.6,1.3-1.3v-5.7
		h34.3c0.9,0,1.6,0.7,1.6,1.6v16.7l-0.5,0.3C106.1,99.3,105.3,100.7,105.3,102.3z M118.5,132h-10.6v-29.6c0-0.9,0.8-1.7,1.7-1.7h7.2
		c0.9,0,1.7,0.8,1.7,1.7L118.5,132L118.5,132z M125.1,96.2h19v3.1h-19V96.2z M125.1,101.9h19v2.6h-19V101.9z M124.9,132h-3v-5h3V132
		z M147.3,132h-3v-5h3V132z M147.3,124.3H122v-3.6h25.4V124.3z M147.3,118H122v-10.8h25.4V118z"/>
	<path class="st0" d="M138.8,113.6c0,0.7-0.6,1.3-1.3,1.3h-5.7c-0.7,0-1.3-0.6-1.3-1.3c0-0.7,0.6-1.3,1.3-1.3h5.7
		C138.2,112.3,138.8,112.9,138.8,113.6z"/>
	<path class="st0" d="M100.3,28.9c-0.3-0.3-0.6-0.4-0.9-0.4H42.1c-0.7,0-1.3,0.6-1.3,1.3v27.4c0,0.7,0.6,1.3,1.3,1.3h57.2
		c0.7,0,1.3-0.6,1.3-1.3V29.8C100.7,29.4,100.5,29.1,100.3,28.9z M46.1,55.8l7.9-12l7.9,12H46.1z M65,55.8L61.8,51l8.8-13.5l12,18.3
		L65,55.8L65,55.8z M85.8,55.8l-2.9-4.4l4.8-7.3l7.7,11.7H85.8z M98,55l-8.7-13.3c-0.4-0.6-1-0.9-1.6-0.9c-0.6,0-1.2,0.3-1.6,0.9
		L81.3,49l-9.1-13.9c-0.4-0.6-1-0.9-1.6-0.9c-0.6,0-1.2,0.3-1.6,0.9l-8.8,13.5l-4.7-7.1c-0.4-0.6-1-0.9-1.6-0.9s-1.2,0.3-1.6,0.9
		L43.5,55V31.1H98V55z"/>
	<path class="st0" d="M104,22.2H37.4c-1.6,0-2.9,1.3-2.9,2.9v36.8c0,1.6,1.3,2.9,2.9,2.9H104c1.6,0,2.9-1.3,2.9-2.9V25.1
		C106.9,23.5,105.6,22.2,104,22.2z M104.3,62.1H37.2V24.8h67.1V62.1z"/>
	<path class="st0" d="M28,20.9c-2.9-0.9-3.2-1.3-4.1-4.2c-0.3-0.8-1-1.4-1.9-1.4c-0.9,0-1.6,0.6-1.9,1.4c-0.9,2.9-1.3,3.3-4.1,4.2
		c-0.8,0.3-1.4,1-1.4,1.9c0,0.9,0.6,1.6,1.4,1.9c1.4,0.4,2.2,0.8,2.8,1.3c0.6,0.6,0.9,1.4,1.3,2.8c0.3,0.8,1,1.4,1.9,1.4
		c0.9,0,1.6-0.6,1.9-1.4c0.9-2.9,1.3-3.3,4.1-4.2c0.8-0.3,1.4-1,1.4-1.9C29.4,22,28.8,21.2,28,20.9z M24,23.6
		c-0.6,0.4-1,0.8-1.4,1.4L21.9,26L21.2,25c-0.4-0.6-0.8-1-1.4-1.4l-1.1-0.7l1.1-0.7c0.6-0.4,1-0.8,1.4-1.4l0.7-1.1l0.7,1.1
		c0.4,0.6,0.8,1,1.4,1.4l1.1,0.7L24,23.6z"/>
	<path class="st0" d="M139.4,36.5c-4-1.3-4.6-1.9-5.8-5.9c-0.3-0.9-1.1-1.6-2.1-1.6c-1,0-1.8,0.6-2.1,1.6c-1.2,4-1.8,4.6-5.8,5.9
		c-0.9,0.3-1.5,1.1-1.5,2.1s0.6,1.8,1.5,2.1h0c4,1.3,4.6,1.9,5.8,5.9c0.3,0.9,1.1,1.6,2.1,1.6s1.8-0.6,2.1-1.6
		c1.2-4,1.8-4.6,5.8-5.9c0.9-0.3,1.5-1.1,1.5-2.1C141,37.6,140.3,36.8,139.4,36.5z M135.5,39.4c-1.5,0.8-2.4,1.7-3.2,3.2l-0.8,1.6
		l-0.8-1.6c-0.8-1.5-1.7-2.4-3.2-3.2l-1.5-0.8l1.5-0.8c1.5-0.8,2.4-1.7,3.2-3.2l0.8-1.6l0.8,1.6c0.8,1.5,1.7,2.4,3.2,3.2l1.5,0.8
		L135.5,39.4z"/>
	<path class="st0" d="M127.8,69.1c-3.5-1.1-4.1-1.7-5.2-5.3c-0.3-0.9-1.1-1.5-2-1.5c-0.9,0-1.8,0.6-2,1.5c-1.1,3.6-1.6,4.1-5.2,5.3
		c-0.9,0.3-1.5,1.1-1.5,2c0,0.9,0.6,1.8,1.5,2c3.5,1.1,4.1,1.7,5.2,5.2c0.3,0.9,1.1,1.5,2,1.5c0.9,0,1.8-0.6,2-1.5
		c1.1-3.6,1.6-4.1,5.2-5.2c0.9-0.3,1.5-1.1,1.5-2C129.3,70.2,128.7,69.4,127.8,69.1z M123.9,71.9c-1.1,0.6-1.8,1.4-2.5,2.5l-0.8,1.4
		l-0.8-1.4c-0.6-1.1-1.4-1.8-2.5-2.5l-1.4-0.8l1.4-0.8c1.1-0.6,1.8-1.4,2.5-2.5l0.8-1.4l0.8,1.4c0.6,1.1,1.4,1.8,2.5,2.5l1.4,0.8
		L123.9,71.9z"/>
</g>
</svg>
