<?xml version="1.0" encoding="iso-8859-1"?>
<!-- Generator: Adobe Illustrator 21.0.2, SVG Export Plug-In . SVG Version: 6.00 Build 0)  -->
<svg version="1.1" id="&#x421;&#x43B;&#x43E;&#x439;_4"
	 xmlns="http://www.w3.org/2000/svg" xmlns:xlink="http://www.w3.org/1999/xlink" x="0px" y="0px" viewBox="0 0 32 32"
	 style="enable-background:new 0 0 32 32;" xml:space="preserve">
<g>
	<g>
		<g>
			<circle style="fill:#E3CFE1;" cx="16" cy="16" r="16"/>
			<g>
				<g>
					<path style="fill:#4B4154;" d="M7.322,23.475c-0.152-0.151-0.227-0.332-0.227-0.542V9.068c0-0.224,0.075-0.408,0.227-0.553
						c0.151-0.144,0.332-0.217,0.542-0.217c0.224,0,0.408,0.073,0.553,0.217c0.144,0.145,0.217,0.329,0.217,0.553v13.864
						c0,0.21-0.073,0.391-0.217,0.542c-0.145,0.152-0.329,0.227-0.553,0.227C7.655,23.701,7.473,23.626,7.322,23.475z"/>
					<path style="fill:#4B4154;" d="M7.864,23.795c-0.235,0-0.44-0.085-0.608-0.254l0,0c-0.169-0.168-0.254-0.373-0.254-0.608V9.068
						c0-0.249,0.086-0.457,0.256-0.62C7.426,8.287,7.63,8.205,7.864,8.205c0.247,0,0.456,0.082,0.619,0.243
						c0.163,0.165,0.245,0.373,0.245,0.62v13.864c0,0.233-0.082,0.437-0.243,0.606C8.322,23.709,8.113,23.795,7.864,23.795z
						 M7.864,8.392c-0.187,0-0.343,0.063-0.477,0.19C7.254,8.711,7.189,8.869,7.189,9.068v13.864c0,0.187,0.065,0.342,0.2,0.475
						l0,0.001c0.133,0.134,0.288,0.199,0.475,0.199c0.199,0,0.358-0.065,0.485-0.198c0.127-0.133,0.191-0.293,0.191-0.477V9.068
						c0-0.199-0.062-0.358-0.19-0.488C8.223,8.454,8.064,8.392,7.864,8.392z"/>
				</g>
				<g>
					<path style="fill:#4B4154;" d="M12.795,23.485c-0.145-0.144-0.217-0.329-0.217-0.552V9.068c0-0.224,0.072-0.408,0.217-0.553
						c0.144-0.144,0.329-0.217,0.552-0.217c0.237,0,0.434,0.093,0.592,0.276l9.427,12.386V9.068c0-0.224,0.075-0.408,0.227-0.553
						c0.151-0.144,0.332-0.217,0.543-0.217c0.223,0,0.407,0.073,0.552,0.217c0.144,0.145,0.217,0.329,0.217,0.553v13.864
						c0,0.21-0.073,0.391-0.217,0.542c-0.145,0.152-0.329,0.227-0.552,0.227c-0.263,0-0.454-0.085-0.573-0.256l-9.446-12.386v11.873
						c0,0.21-0.073,0.391-0.217,0.542c-0.145,0.152-0.329,0.227-0.553,0.227C13.124,23.701,12.94,23.63,12.795,23.485z"/>
					<path style="fill:#4B4154;" d="M24.136,23.795c-0.294,0-0.512-0.1-0.649-0.296L14.21,11.336v11.597
						c0,0.234-0.082,0.437-0.243,0.606c-0.162,0.17-0.371,0.256-0.62,0.256c-0.249,0-0.457-0.082-0.617-0.243l0,0
						c-0.163-0.161-0.245-0.37-0.245-0.618V9.068c0-0.249,0.082-0.456,0.245-0.619c0.162-0.162,0.37-0.244,0.618-0.244
						c0.263,0,0.486,0.104,0.662,0.308l9.263,12.17V9.068c0-0.249,0.086-0.457,0.256-0.62c0.168-0.161,0.372-0.243,0.607-0.243
						c0.247,0,0.455,0.082,0.617,0.243c0.163,0.164,0.245,0.373,0.245,0.62v13.864c0,0.234-0.082,0.437-0.243,0.606
						C24.592,23.709,24.384,23.795,24.136,23.795z M14.023,10.783l0.168,0.219l9.446,12.386c0.104,0.149,0.266,0.219,0.498,0.219
						c0.198,0,0.357-0.065,0.484-0.198c0.127-0.132,0.191-0.292,0.191-0.477V9.068c0-0.199-0.062-0.359-0.19-0.488
						c-0.128-0.127-0.287-0.189-0.485-0.189c-0.188,0-0.344,0.063-0.478,0.19c-0.133,0.128-0.198,0.287-0.198,0.486v12.169
						L13.864,8.631c-0.137-0.16-0.308-0.239-0.517-0.239c-0.2,0-0.359,0.062-0.486,0.19c-0.128,0.128-0.19,0.287-0.19,0.487v13.864
						c0,0.2,0.062,0.359,0.19,0.485l0,0.001c0.127,0.127,0.286,0.189,0.486,0.189c0.199,0,0.358-0.065,0.485-0.198
						c0.127-0.133,0.191-0.293,0.191-0.477V10.783z"/>
				</g>
			</g>
		</g>
	</g>
</g>
</svg>
