<?xml version="1.0" encoding="iso-8859-1"?>
<!-- Generator: Adobe Illustrator 21.0.2, SVG Export Plug-In . SVG Version: 6.00 Build 0)  -->
<svg version="1.1" id="&#x421;&#x43B;&#x43E;&#x439;_4"
	 xmlns="http://www.w3.org/2000/svg" xmlns:xlink="http://www.w3.org/1999/xlink" x="0px" y="0px" viewBox="0 0 256 256"
	 style="enable-background:new 0 0 256 256;" xml:space="preserve">
<g>
	<g>
		<g>
			<circle style="fill:#E3CFE1;" cx="128" cy="128" r="128"/>
			<g>
				<g>
					<path style="fill:#4B4154;" d="M58.58,187.796c-1.213-1.205-1.815-2.657-1.815-4.335V72.546c0-1.793,0.603-3.26,1.815-4.422
						c1.205-1.154,2.657-1.735,4.335-1.735c1.793,0,3.26,0.581,4.422,1.735c1.154,1.162,1.735,2.628,1.735,4.422v110.916
						c0,1.677-0.581,3.129-1.735,4.335c-1.162,1.213-2.628,1.815-4.422,1.815C61.237,189.611,59.785,189.009,58.58,187.796z"/>
					<path style="fill:#4B4154;" d="M62.914,190.356c-1.884,0-3.52-0.682-4.861-2.029l0,0c-1.35-1.347-2.035-2.98-2.035-4.864
						V72.548c0-1.989,0.688-3.657,2.047-4.963c1.341-1.289,2.974-1.942,4.849-1.942c1.98,0,3.648,0.653,4.948,1.948
						c1.3,1.318,1.957,2.98,1.957,4.957v110.915c0,1.866-0.653,3.499-1.942,4.846C66.576,189.668,64.906,190.356,62.914,190.356z
						 M62.914,67.136c-1.499,0-2.747,0.502-3.817,1.522c-1.067,1.026-1.586,2.298-1.586,3.89v110.915
						c0,1.493,0.522,2.735,1.598,3.802l0.003,0.006c1.064,1.073,2.306,1.592,3.802,1.592c1.592,0,2.863-0.519,3.884-1.586
						c1.015-1.061,1.528-2.344,1.528-3.814V72.548c0-1.592-0.496-2.863-1.519-3.901C65.783,67.632,64.509,67.136,62.914,67.136z"/>
				</g>
				<g>
					<path style="fill:#4B4154;" d="M102.362,187.876c-1.162-1.154-1.735-2.628-1.735-4.415V72.546c0-1.793,0.574-3.26,1.735-4.422
						c1.154-1.154,2.628-1.735,4.415-1.735c1.895,0,3.471,0.741,4.734,2.207l75.418,99.088V72.546c0-1.793,0.603-3.26,1.815-4.422
						c1.205-1.154,2.657-1.735,4.342-1.735c1.786,0,3.253,0.581,4.415,1.735c1.154,1.162,1.735,2.628,1.735,4.422v110.916
						c0,1.677-0.581,3.129-1.735,4.335c-1.162,1.213-2.628,1.815-4.415,1.815c-2.106,0-3.63-0.683-4.582-2.048l-75.57-99.088v94.986
						c0,1.677-0.581,3.129-1.735,4.335c-1.162,1.213-2.628,1.815-4.422,1.815C104.991,189.611,103.517,189.038,102.362,187.876z"/>
					<path style="fill:#4B4154;" d="M193.086,190.356c-2.353,0-4.1-0.799-5.193-2.368L113.68,90.685v92.778
						c0,1.872-0.653,3.499-1.942,4.846c-1.298,1.359-2.965,2.047-4.96,2.047c-1.989,0-3.654-0.653-4.94-1.948l0,0
						c-1.3-1.289-1.959-2.957-1.959-4.945V72.548c0-1.989,0.659-3.651,1.957-4.951c1.295-1.295,2.957-1.954,4.942-1.954
						c2.105,0,3.887,0.828,5.298,2.461l74.105,97.362V72.548c0-1.989,0.688-3.657,2.047-4.963c1.341-1.289,2.977-1.942,4.858-1.942
						c1.974,0,3.639,0.653,4.94,1.948c1.3,1.312,1.957,2.98,1.957,4.957v110.915c0,1.872-0.653,3.499-1.942,4.846
						C196.74,189.668,195.072,190.356,193.086,190.356z M112.187,86.264l1.341,1.755l75.572,99.088
						c0.828,1.19,2.126,1.755,3.986,1.755c1.586,0,2.855-0.519,3.875-1.586c1.015-1.056,1.528-2.339,1.528-3.814V72.548
						c0-1.592-0.496-2.869-1.519-3.901c-1.023-1.015-2.295-1.51-3.884-1.51c-1.505,0-2.756,0.502-3.826,1.522
						c-1.067,1.026-1.586,2.298-1.586,3.89v97.35l-76.758-100.85c-1.099-1.277-2.464-1.913-4.138-1.913
						c-1.598,0-2.869,0.496-3.887,1.516c-1.023,1.021-1.519,2.298-1.519,3.896v110.915c0,1.604,0.496,2.869,1.516,3.884l0.003,0.006
						c1.015,1.015,2.286,1.51,3.887,1.51c1.592,0,2.861-0.519,3.881-1.58c1.015-1.061,1.528-2.344,1.528-3.82V86.264z"/>
				</g>
			</g>
		</g>
	</g>
</g>
</svg>
