<?xml version="1.0" encoding="iso-8859-1"?>
<!-- Generator: Adobe Illustrator 21.0.2, SVG Export Plug-In . SVG Version: 6.00 Build 0)  -->
<svg version="1.1" id="&#x421;&#x43B;&#x43E;&#x439;_4"
	 xmlns="http://www.w3.org/2000/svg" xmlns:xlink="http://www.w3.org/1999/xlink" x="0px" y="0px" viewBox="0 0 240.125 56.125"
	 style="enable-background:new 0 0 240.125 56.125;" xml:space="preserve">
<g>
	<g>
		<g>
			<g>
				<path style="fill:#4B4154;" d="M65.365,39.825c-0.193-0.193-0.288-0.435-0.288-0.727V14.713c0-0.293,0.096-0.535,0.288-0.727
					c0.191-0.191,0.433-0.287,0.727-0.287c0.293,0,0.535,0.096,0.727,0.287c0.191,0.193,0.287,0.435,0.287,0.727v11.161h17.079
					V14.713c0-0.293,0.096-0.535,0.288-0.727c0.191-0.191,0.433-0.287,0.727-0.287c0.27,0,0.506,0.096,0.709,0.287
					c0.203,0.193,0.305,0.435,0.305,0.727v24.385c0,0.293-0.102,0.535-0.305,0.727c-0.203,0.191-0.439,0.287-0.709,0.287
					c-0.294,0-0.536-0.096-0.727-0.287c-0.193-0.193-0.288-0.435-0.288-0.727V27.701H67.106v11.397c0,0.293-0.096,0.535-0.287,0.727
					c-0.193,0.191-0.435,0.287-0.727,0.287C65.798,40.112,65.556,40.016,65.365,39.825z"/>
				<path style="fill:#4B4154;" d="M105.897,22.643c1.443,0.824,2.576,1.957,3.399,3.399c0.823,1.443,1.235,3.056,1.235,4.836v8.219
					c0,0.293-0.091,0.535-0.27,0.727c-0.181,0.191-0.429,0.287-0.745,0.287c-0.293,0-0.535-0.096-0.726-0.287
					c-0.193-0.193-0.288-0.435-0.288-0.727v-2.639c-0.744,1.196-1.764,2.137-3.06,2.824c-1.296,0.689-2.745,1.032-4.346,1.032
					c-1.782,0-3.393-0.411-4.836-1.235c-1.443-0.823-2.576-1.955-3.399-3.398c-0.823-1.443-1.234-3.044-1.234-4.803
					c0-1.78,0.411-3.393,1.234-4.836c0.823-1.443,1.957-2.575,3.399-3.399c1.443-0.823,3.054-1.234,4.836-1.234
					C102.853,21.41,104.454,21.821,105.897,22.643z M104.883,37.44c1.128-0.654,2.012-1.556,2.656-2.705
					c0.642-1.15,0.963-2.436,0.963-3.856c0-1.42-0.321-2.705-0.963-3.855c-0.644-1.15-1.528-2.058-2.656-2.723
					c-1.128-0.665-2.39-0.998-3.788-0.998s-2.66,0.333-3.788,0.998c-1.128,0.665-2.018,1.573-2.672,2.723
					c-0.654,1.15-0.981,2.434-0.981,3.855c0,1.42,0.327,2.706,0.981,3.856c0.654,1.149,1.544,2.051,2.672,2.705
					c1.128,0.654,2.39,0.981,3.788,0.981S103.755,38.094,104.883,37.44z"/>
				<path style="fill:#4B4154;" d="M129.875,22.643c1.443,0.824,2.575,1.957,3.399,3.399c0.821,1.443,1.234,3.056,1.234,4.836
					c0,1.759-0.412,3.36-1.234,4.803c-0.824,1.443-1.957,2.575-3.399,3.398c-1.443,0.824-3.056,1.235-4.836,1.235
					c-1.601,0-3.05-0.344-4.346-1.032c-1.296-0.687-2.316-1.628-3.06-2.824v10.552c0,0.317-0.091,0.565-0.272,0.745
					c-0.181,0.179-0.427,0.27-0.744,0.27c-0.293,0-0.535-0.091-0.727-0.27c-0.191-0.181-0.287-0.429-0.287-0.745V30.744v-0.069
					c0.022-1.735,0.451-3.314,1.284-4.735c0.835-1.42,1.967-2.53,3.399-3.331c1.432-0.801,3.015-1.201,4.752-1.201
					C126.82,21.41,128.433,21.821,129.875,22.643z M128.827,37.44c1.128-0.654,2.018-1.556,2.672-2.705
					c0.653-1.15,0.98-2.436,0.98-3.856c0-1.42-0.327-2.705-0.98-3.855c-0.654-1.15-1.544-2.058-2.672-2.723
					c-1.128-0.665-2.39-0.998-3.788-0.998c-1.399,0-2.661,0.333-3.788,0.998c-1.128,0.665-2.013,1.573-2.656,2.723
					c-0.642,1.15-0.963,2.434-0.963,3.855c0,1.42,0.321,2.706,0.963,3.856c0.642,1.149,1.528,2.051,2.656,2.705
					c1.126,0.654,2.388,0.981,3.788,0.981C126.437,38.421,127.699,38.094,128.827,37.44z"/>
				<path style="fill:#4B4154;" d="M153.854,22.643c1.443,0.824,2.575,1.957,3.399,3.399c0.821,1.443,1.234,3.056,1.234,4.836
					c0,1.759-0.412,3.36-1.234,4.803c-0.824,1.443-1.957,2.575-3.399,3.398c-1.443,0.824-3.056,1.235-4.836,1.235
					c-1.601,0-3.05-0.344-4.346-1.032c-1.296-0.687-2.316-1.628-3.06-2.824v10.552c0,0.317-0.091,0.565-0.272,0.745
					c-0.181,0.179-0.427,0.27-0.744,0.27c-0.293,0-0.535-0.091-0.727-0.27c-0.191-0.181-0.287-0.429-0.287-0.745V30.744v-0.069
					c0.022-1.735,0.451-3.314,1.284-4.735c0.835-1.42,1.967-2.53,3.399-3.331c1.432-0.801,3.015-1.201,4.752-1.201
					C150.798,21.41,152.411,21.821,153.854,22.643z M152.806,37.44c1.128-0.654,2.018-1.556,2.672-2.705
					c0.653-1.15,0.98-2.436,0.98-3.856c0-1.42-0.327-2.705-0.98-3.855c-0.654-1.15-1.544-2.058-2.672-2.723
					c-1.128-0.665-2.39-0.998-3.788-0.998c-1.399,0-2.661,0.333-3.788,0.998c-1.128,0.665-2.013,1.573-2.656,2.723
					c-0.642,1.15-0.963,2.434-0.963,3.855c0,1.42,0.321,2.706,0.963,3.856c0.642,1.149,1.528,2.051,2.656,2.705
					c1.126,0.654,2.388,0.981,3.788,0.981C150.416,38.421,151.678,38.094,152.806,37.44z"/>
				<path style="fill:#4B4154;" d="M177.899,22.424c0,0.091-0.045,0.248-0.134,0.473L166.4,47.518
					c-0.202,0.406-0.462,0.609-0.777,0.609c-0.136,0-0.294-0.034-0.473-0.102c-0.429-0.181-0.644-0.441-0.644-0.778
					c0-0.091,0.045-0.248,0.136-0.473l3.381-7.305c-0.022-0.022-0.067-0.102-0.134-0.237l-7.406-16.233
					c-0.091-0.181-0.136-0.36-0.136-0.541c0-0.339,0.191-0.597,0.575-0.778c0.181-0.09,0.36-0.136,0.541-0.136
					c0.339,0,0.597,0.193,0.778,0.575l6.866,15.016l6.899-14.982c0.203-0.406,0.463-0.609,0.778-0.609
					c0.158,0,0.315,0.034,0.473,0.102C177.685,21.827,177.899,22.086,177.899,22.424z"/>
				<path style="fill:#4B4154;" d="M198.496,14.172c0.315,0.317,0.473,0.733,0.473,1.252v15.422c0,1.758-0.412,3.353-1.235,4.785
					c-0.823,1.431-1.939,2.558-3.347,3.381c-1.41,0.823-2.983,1.235-4.718,1.235c-1.737,0-3.32-0.412-4.752-1.235
					c-1.432-0.823-2.552-1.951-3.365-3.381c-0.811-1.432-1.217-3.027-1.217-4.785c0-1.759,0.378-3.354,1.134-4.787
					c0.754-1.431,1.792-2.552,3.111-3.365c1.319-0.811,2.79-1.217,4.413-1.217c1.307,0,2.524,0.27,3.652,0.812
					c1.128,0.541,2.086,1.296,2.875,2.266v-9.132c0-0.518,0.163-0.935,0.49-1.252c0.327-0.315,0.739-0.473,1.235-0.473
					C197.763,13.699,198.18,13.857,198.496,14.172z M192.73,36.375c0.913-0.553,1.628-1.313,2.148-2.284
					c0.518-0.969,0.778-2.051,0.778-3.245s-0.26-2.272-0.778-3.231c-0.52-0.957-1.235-1.713-2.148-2.266s-1.934-0.829-3.06-0.829
					c-1.128,0-2.148,0.276-3.062,0.829c-0.913,0.553-1.634,1.308-2.164,2.266c-0.53,0.959-0.795,2.036-0.795,3.231
					s0.264,2.276,0.795,3.245c0.53,0.971,1.252,1.731,2.164,2.284c0.914,0.553,1.934,0.829,3.062,0.829
					C190.796,37.204,191.817,36.928,192.73,36.375z"/>
				<path style="fill:#4B4154;" d="M221.222,31.641c-0.294,0.282-0.666,0.423-1.116,0.423h-12.852
					c0.248,1.579,0.963,2.853,2.148,3.82c1.183,0.971,2.632,1.455,4.346,1.455c0.675,0,1.38-0.124,2.113-0.372
					c0.732-0.248,1.335-0.553,1.809-0.913c0.315-0.248,0.689-0.372,1.116-0.372c0.429,0,0.768,0.112,1.016,0.338
					c0.406,0.339,0.608,0.721,0.608,1.15c0,0.406-0.181,0.744-0.541,1.014c-0.766,0.609-1.719,1.105-2.857,1.489
					c-1.14,0.382-2.227,0.575-3.263,0.575c-1.849,0-3.507-0.4-4.972-1.201c-1.467-0.801-2.611-1.912-3.434-3.332
					c-0.823-1.42-1.234-3.032-1.234-4.836c0-1.803,0.388-3.42,1.166-4.853s1.861-2.548,3.247-3.349
					c1.386-0.801,2.959-1.201,4.718-1.201c1.736,0,3.235,0.384,4.499,1.15c1.262,0.766,2.231,1.839,2.908,3.213
					c0.677,1.376,1.014,2.954,1.014,4.735C221.661,31.003,221.515,31.358,221.222,31.641z M209.233,25.738
					c-1.028,0.902-1.674,2.109-1.946,3.619h11.263c-0.203-1.51-0.766-2.717-1.691-3.619c-0.924-0.901-2.131-1.353-3.619-1.353
					C211.595,24.385,210.258,24.837,209.233,25.738z"/>
				<path style="fill:#4B4154;" d="M228.46,39.537c-1.353-0.473-2.414-1.093-3.18-1.859c-0.293-0.293-0.439-0.644-0.439-1.048
					c0-0.542,0.226-0.981,0.677-1.319c0.427-0.317,0.823-0.473,1.183-0.473c0.451,0,0.88,0.202,1.286,0.608
					c0.427,0.473,1.071,0.886,1.927,1.235c0.857,0.349,1.77,0.524,2.741,0.524c1.284,0,2.282-0.215,2.993-0.644
					c0.709-0.427,1.065-1.002,1.065-1.724c0-0.699-0.349-1.28-1.048-1.743c-0.699-0.462-1.883-0.85-3.552-1.166
					c-4.328-0.833-6.492-2.615-6.492-5.344c0-1.104,0.326-2.04,0.98-2.806c0.654-0.766,1.51-1.341,2.57-1.725
					c1.06-0.382,2.187-0.575,3.383-0.575c1.465,0,2.778,0.237,3.94,0.711c1.16,0.473,2.079,1.128,2.756,1.961
					c0.293,0.361,0.441,0.721,0.441,1.083c0,0.382-0.193,0.732-0.575,1.048c-0.249,0.181-0.565,0.27-0.947,0.27
					c-0.587,0-1.117-0.215-1.591-0.644c-0.563-0.518-1.16-0.884-1.792-1.098c-0.632-0.215-1.398-0.323-2.3-0.323
					c-1.037,0-1.888,0.176-2.552,0.524c-0.666,0.351-0.998,0.841-0.998,1.471c0,0.453,0.112,0.829,0.338,1.134
					c0.226,0.305,0.654,0.587,1.286,0.845c0.63,0.26,1.543,0.514,2.739,0.762c2.457,0.496,4.198,1.183,5.224,2.063
					s1.54,2.018,1.54,3.416c0,1.037-0.282,1.979-0.845,2.824c-0.565,0.845-1.393,1.51-2.487,1.995s-2.406,0.727-3.94,0.727
					C231.254,40.248,229.811,40.01,228.46,39.537z"/>
			</g>
		</g>
		<g>
			<circle style="fill:#E3CFE1;" cx="27.979" cy="28.198" r="27.919"/>
			<g>
				<g>
					<path style="fill:#4B4154;" d="M12.837,41.241c-0.264-0.263-0.396-0.58-0.396-0.945V16.102c0-0.391,0.131-0.711,0.396-0.964
						c0.263-0.252,0.58-0.379,0.945-0.379c0.391,0,0.711,0.127,0.964,0.379c0.252,0.253,0.379,0.573,0.379,0.964v24.193
						c0,0.366-0.127,0.683-0.379,0.945c-0.253,0.264-0.573,0.396-0.964,0.396C13.417,41.637,13.1,41.505,12.837,41.241z"/>
					<path style="fill:#4B4154;" d="M13.783,41.799c-0.411,0-0.768-0.149-1.06-0.443l0,0c-0.294-0.294-0.444-0.65-0.444-1.061
						V16.103c0-0.434,0.15-0.798,0.446-1.083c0.293-0.281,0.649-0.424,1.058-0.424c0.432,0,0.796,0.142,1.079,0.425
						c0.284,0.287,0.427,0.65,0.427,1.081v24.193c0,0.407-0.142,0.763-0.424,1.057C14.582,41.649,14.217,41.799,13.783,41.799z
						 M13.783,14.922c-0.327,0-0.599,0.109-0.833,0.332c-0.233,0.224-0.346,0.501-0.346,0.848v24.193
						c0,0.326,0.114,0.597,0.349,0.829l0.001,0.001c0.232,0.234,0.503,0.347,0.829,0.347c0.347,0,0.625-0.113,0.847-0.346
						c0.221-0.232,0.333-0.511,0.333-0.832V16.103c0-0.347-0.108-0.625-0.331-0.851C14.409,15.03,14.131,14.922,13.783,14.922z"/>
				</g>
				<g>
					<path style="fill:#4B4154;" d="M22.387,41.258c-0.253-0.252-0.379-0.573-0.379-0.963V16.102c0-0.391,0.125-0.711,0.379-0.964
						c0.252-0.252,0.573-0.379,0.963-0.379c0.413,0,0.757,0.162,1.033,0.481l16.45,21.613V16.102c0-0.391,0.131-0.711,0.396-0.964
						c0.263-0.252,0.58-0.379,0.947-0.379c0.39,0,0.71,0.127,0.963,0.379c0.252,0.253,0.379,0.573,0.379,0.964v24.193
						c0,0.366-0.127,0.683-0.379,0.945c-0.253,0.264-0.573,0.396-0.963,0.396c-0.459,0-0.792-0.149-0.999-0.447L24.693,19.577
						v20.718c0,0.366-0.127,0.683-0.379,0.945c-0.253,0.264-0.573,0.396-0.964,0.396C22.961,41.637,22.639,41.512,22.387,41.258z"/>
					<path style="fill:#4B4154;" d="M42.176,41.799c-0.513,0-0.894-0.174-1.133-0.516L24.856,20.059v20.237
						c0,0.408-0.142,0.763-0.424,1.057c-0.283,0.296-0.647,0.446-1.082,0.446c-0.434,0-0.797-0.142-1.077-0.425l0,0
						c-0.284-0.281-0.427-0.645-0.427-1.079V16.103c0-0.434,0.144-0.796,0.427-1.08c0.282-0.282,0.645-0.426,1.078-0.426
						c0.459,0,0.848,0.181,1.156,0.537L40.67,36.37V16.103c0-0.434,0.15-0.798,0.446-1.083c0.293-0.281,0.649-0.424,1.06-0.424
						c0.431,0,0.794,0.142,1.077,0.425c0.284,0.286,0.427,0.65,0.427,1.081v24.193c0,0.408-0.142,0.763-0.424,1.057
						C42.973,41.649,42.609,41.799,42.176,41.799z M24.53,19.095l0.293,0.383l16.484,21.613c0.181,0.259,0.464,0.383,0.869,0.383
						c0.346,0,0.623-0.113,0.845-0.346c0.221-0.23,0.333-0.51,0.333-0.832V16.103c0-0.347-0.108-0.626-0.331-0.851
						c-0.223-0.221-0.501-0.329-0.847-0.329c-0.328,0-0.601,0.109-0.834,0.332c-0.233,0.224-0.346,0.501-0.346,0.848v21.234
						L24.253,15.34c-0.24-0.279-0.537-0.417-0.903-0.417c-0.349,0-0.626,0.108-0.848,0.331c-0.223,0.223-0.331,0.501-0.331,0.85
						v24.193c0,0.35,0.108,0.626,0.331,0.847l0.001,0.001c0.221,0.221,0.499,0.329,0.848,0.329c0.347,0,0.624-0.113,0.847-0.345
						c0.221-0.232,0.333-0.511,0.333-0.833V19.095z"/>
				</g>
			</g>
		</g>
	</g>
</g>
</svg>
