<?xml version="1.0" encoding="iso-8859-1"?>
<!-- Generator: Adobe Illustrator 21.0.2, SVG Export Plug-In . SVG Version: 6.00 Build 0)  -->
<svg version="1.1" id="&#x421;&#x43B;&#x43E;&#x439;_1"
	 xmlns="http://www.w3.org/2000/svg" xmlns:xlink="http://www.w3.org/1999/xlink" x="0px" y="0px" viewBox="0 0 255.12 141.73"
	 style="enable-background:new 0 0 255.12 141.73;" xml:space="preserve">
<g>
	<path style="fill:#493F52;" d="M156.926,3.73H96.324C75.742,3.73,59,20.473,59,41.055v60.601c0,20.582,16.742,37.324,37.324,37.324
		h60.602c20.582,0,37.324-16.746,37.324-37.324V41.055C194.25,20.473,177.508,3.73,156.926,3.73L156.926,3.73z M182.25,101.656
		c0,13.965-11.359,25.324-25.324,25.324H96.324C82.359,126.98,71,115.621,71,101.656V41.055C71,27.09,82.359,15.73,96.324,15.73
		h60.602c13.965,0,25.324,11.36,25.324,25.325V101.656z M182.25,101.656"/>
	<path style="fill:#493F52;" d="M126.625,36.508c-19.219,0-34.852,15.633-34.852,34.847c0,19.219,15.633,34.852,34.852,34.852
		c19.215,0,34.852-15.633,34.852-34.852C161.477,52.141,145.84,36.508,126.625,36.508L126.625,36.508z M126.625,94.203
		c-12.598,0-22.852-10.246-22.852-22.848c0-12.597,10.25-22.851,22.852-22.851s22.852,10.254,22.852,22.851
		C149.477,83.957,139.223,94.203,126.625,94.203L126.625,94.203z M126.625,94.203"/>
	<path style="fill:#493F52;" d="M162.938,26.332c-2.313,0-4.583,0.934-6.215,2.574c-1.645,1.633-2.586,3.906-2.586,6.227
		c0,2.312,0.945,4.582,2.586,6.222c1.629,1.633,3.902,2.575,6.215,2.575c2.32,0,4.582-0.942,6.222-2.575
		c1.641-1.64,2.578-3.914,2.578-6.222c0-2.321-0.937-4.594-2.578-6.227C167.527,27.266,165.258,26.332,162.938,26.332
		L162.938,26.332z M162.938,26.332"/>
</g>
</svg>
