<?xml version="1.0" encoding="utf-8"?>
<!-- Generator: Adobe Illustrator 21.0.2, SVG Export Plug-In . SVG Version: 6.00 Build 0)  -->
<svg version="1.1" id="Слой_1" xmlns="http://www.w3.org/2000/svg" xmlns:xlink="http://www.w3.org/1999/xlink" x="0px" y="0px"
	 viewBox="0 0 30 30" style="enable-background:new 0 0 30 30;" xml:space="preserve">
<style type="text/css">
	.st0{fill:#FFFFFF;}
	.st1{fill:#493F52;}
</style>
<circle class="st0" cx="15" cy="15" r="15"/>
<g>
	<path class="st1" d="M19.5,5h-9C7.5,5,5,7.5,5,10.5v9c0,3,2.5,5.5,5.5,5.5h9c3,0,5.5-2.5,5.5-5.5v-9C25,7.5,22.5,5,19.5,5L19.5,5z
		 M23.2,19.5c0,2.1-1.7,3.7-3.7,3.7h-9c-2.1,0-3.7-1.7-3.7-3.7v-9c0-2.1,1.7-3.7,3.7-3.7h9c2.1,0,3.7,1.7,3.7,3.7
		C23.2,10.5,23.2,19.5,23.2,19.5z"/>
	<path class="st1" d="M15,9.8c-2.8,0-5.2,2.3-5.2,5.2c0,2.8,2.3,5.2,5.2,5.2c2.8,0,5.2-2.3,5.2-5.2C20.2,12.2,17.8,9.8,15,9.8
		L15,9.8z M15,18.4c-1.9,0-3.4-1.5-3.4-3.4c0-1.9,1.5-3.4,3.4-3.4c1.9,0,3.4,1.5,3.4,3.4C18.4,16.9,16.9,18.4,15,18.4L15,18.4z"/>
	<path class="st1" d="M20.4,8.3c-0.3,0-0.7,0.1-0.9,0.4c-0.2,0.2-0.4,0.6-0.4,0.9c0,0.3,0.1,0.7,0.4,0.9c0.2,0.2,0.6,0.4,0.9,0.4
		c0.3,0,0.7-0.1,0.9-0.4c0.2-0.2,0.4-0.6,0.4-0.9c0-0.3-0.1-0.7-0.4-0.9C21,8.5,20.7,8.3,20.4,8.3L20.4,8.3z"/>
</g>
</svg>
