<?xml version="1.0" encoding="utf-8"?>
<!-- Generator: Adobe Illustrator 21.0.2, SVG Export Plug-In . SVG Version: 6.00 Build 0)  -->
<svg version="1.1" id="Слой_1" xmlns="http://www.w3.org/2000/svg" xmlns:xlink="http://www.w3.org/1999/xlink" x="0px" y="0px"
	 viewBox="0 0 135 135.7" style="enable-background:new 0 0 135 135.7;" xml:space="preserve">
<style type="text/css">
	.st0{fill:#493F52;}
</style>
<g>
	<path class="st0" d="M97.9,0H37.3C16.7,0,0,16.7,0,37.3v60.6c0,20.6,16.7,37.3,37.3,37.3h60.6c20.6,0,37.3-16.7,37.3-37.3V37.3
		C135.3,16.7,118.5,0,97.9,0L97.9,0z M123.3,97.9c0,14-11.4,25.3-25.3,25.3H37.3c-14,0-25.3-11.4-25.3-25.3V37.3
		C12,23.4,23.4,12,37.3,12h60.6c14,0,25.3,11.4,25.3,25.3V97.9z"/>
	<path class="st0" d="M67.6,32.8c-19.2,0-34.9,15.6-34.9,34.8c0,19.2,15.6,34.9,34.9,34.9c19.2,0,34.9-15.6,34.9-34.9
		C102.5,48.4,86.8,32.8,67.6,32.8L67.6,32.8z M67.6,90.5c-12.6,0-22.9-10.2-22.9-22.8C44.8,55,55,44.8,67.6,44.8S90.5,55,90.5,67.6
		C90.5,80.2,80.2,90.5,67.6,90.5L67.6,90.5z"/>
	<path class="st0" d="M103.9,22.6c-2.3,0-4.6,0.9-6.2,2.6c-1.6,1.6-2.6,3.9-2.6,6.2c0,2.3,0.9,4.6,2.6,6.2c1.6,1.6,3.9,2.6,6.2,2.6
		c2.3,0,4.6-0.9,6.2-2.6c1.6-1.6,2.6-3.9,2.6-6.2c0-2.3-0.9-4.6-2.6-6.2C108.5,23.5,106.3,22.6,103.9,22.6L103.9,22.6z"/>
</g>
</svg>
