<?xml version="1.0" encoding="iso-8859-1"?>
<!-- Generator: Adobe Illustrator 21.0.2, SVG Export Plug-In . SVG Version: 6.00 Build 0)  -->
<svg version="1.1" id="&#x421;&#x43B;&#x43E;&#x439;_1"
	 xmlns="http://www.w3.org/2000/svg" xmlns:xlink="http://www.w3.org/1999/xlink" x="0px" y="0px" viewBox="0 0 30 30"
	 style="enable-background:new 0 0 30 30;" xml:space="preserve">
<linearGradient id="SVGID_1_" gradientUnits="userSpaceOnUse" x1="0" y1="15" x2="30" y2="15">
	<stop  offset="0" style="stop-color:#E3CFE1"/>
	<stop  offset="1" style="stop-color:#E3F1F0"/>
</linearGradient>
<circle style="fill:url(#SVGID_1_);" cx="15" cy="15" r="15"/>
<g>
	<path style="fill:#493F52;" d="M19.481,5h-8.961C7.476,5,5,7.476,5,10.519v8.961C5,22.524,7.476,25,10.519,25h8.961
		C22.524,25,25,22.524,25,19.481v-8.961C25,7.476,22.524,5,19.481,5L19.481,5z M23.226,19.481c0,2.065-1.68,3.745-3.745,3.745
		h-8.961c-2.065,0-3.745-1.68-3.745-3.745v-8.961c0-2.065,1.68-3.745,3.745-3.745h8.961c2.065,0,3.745,1.68,3.745,3.745V19.481z"/>
	<path style="fill:#493F52;" d="M15,9.847c-2.842,0-5.154,2.312-5.154,5.153c0,2.842,2.312,5.154,5.154,5.154
		c2.841,0,5.154-2.312,5.154-5.154C20.154,12.159,17.841,9.847,15,9.847L15,9.847z M15,18.379c-1.863,0-3.379-1.515-3.379-3.379
		c0-1.863,1.516-3.379,3.379-3.379c1.864,0,3.379,1.516,3.379,3.379C18.379,16.864,16.863,18.379,15,18.379L15,18.379z"/>
	<path style="fill:#493F52;" d="M20.37,8.342c-0.342,0-0.678,0.138-0.919,0.381c-0.243,0.241-0.382,0.578-0.382,0.921
		c0,0.342,0.14,0.678,0.382,0.92c0.241,0.241,0.577,0.381,0.919,0.381c0.343,0,0.678-0.139,0.92-0.381
		c0.243-0.243,0.381-0.579,0.381-0.92c0-0.343-0.139-0.679-0.381-0.921C21.048,8.48,20.713,8.342,20.37,8.342L20.37,8.342z"/>
</g>
</svg>
