<?xml version="1.0" encoding="utf-8"?>
<!-- Generator: Adobe Illustrator 21.0.2, SVG Export Plug-In . SVG Version: 6.00 Build 0)  -->
<svg version="1.1" id="landscape" xmlns="http://www.w3.org/2000/svg" xmlns:xlink="http://www.w3.org/1999/xlink" x="0px" y="0px"
	 viewBox="0 0 150 150" style="enable-background:new 0 0 150 150;" xml:space="preserve">
<style type="text/css">
	.st0{fill:#FFFFFF;}
</style>
<path class="st0" d="M148.3,132.9H115v-17l0.8-0.1c6.9-0.9,12.8-5.2,16.3-11.6l0.2-0.4l0.4-0.1c4.6-1.1,8.9-3.8,12-7.7
	c3.4-4.3,5.3-9.7,5.3-15.4c0-8.6-4.3-16.5-11.3-20.6l-0.4-0.2l0-0.5c-0.7-14.5-11.8-25.8-25.2-25.8c-4.2,0-8.4,1.2-12.1,3.3
	c-0.4,0.2-0.6,0.6-0.7,1c-0.1,0.4,0,0.9,0.2,1.2c0.5,0.8,1.4,1,2.2,0.6c3.2-1.9,6.8-2.9,10.5-2.9c12.1,0,22,10.8,22,24.1
	c0,0.6,0.3,1.2,0.9,1.4c6.6,3.3,10.8,10.6,10.8,18.5c0,10-6.8,18.6-15.8,20.1c-0.5,0.1-1,0.4-1.2,0.9c-2.8,5.7-7.9,9.8-13.7,10.8
	l-1,0.2V89.1l12.6-11.6c0.3-0.3,0.5-0.7,0.5-1.1c0-0.4-0.1-0.8-0.4-1.2c-0.6-0.7-1.6-0.7-2.3-0.1L115,84.7V66c0-0.9-0.7-1.6-1.6-1.6
	c-0.9,0-1.6,0.7-1.6,1.6v32.3l-10.4-9.6c-0.3-0.3-0.7-0.4-1.2-0.4c-0.4,0-0.8,0.2-1.1,0.5c-0.6,0.7-0.6,1.7,0.1,2.3l12.6,11.6v10.1
	l-1-0.1c-6.2-0.8-11.7-4.9-14.6-11.1c-0.2-0.5-0.6-0.8-1.1-0.9c-8.7-1.8-15-10.2-15-20c0-7.7,3.9-14.6,10.1-18.1
	c0.5-0.3,0.8-0.8,0.8-1.4c0-0.1,0-0.1,0-0.2l0,0v-0.1c0-5.4,1.6-10.5,4.6-14.7c0.2-0.4,0.3-0.8,0.3-1.2s-0.3-0.8-0.7-1
	c-0.4-0.2-0.8-0.3-1.2-0.3c-0.4,0.1-0.8,0.3-1,0.7c-3.2,4.5-5,9.9-5.2,15.6l0,0.5l-0.4,0.3c-6.6,4.3-10.5,11.8-10.5,20.2
	c0,10.8,6.8,20.2,16.4,22.8l0.4,0.1l0.2,0.3c3.6,6.8,10,11.2,17.2,11.9l0.8,0.1v17h-3.3l0-0.8c-0.3-6.2-4.5-11.5-10.4-13.4l-0.4-0.1
	l-0.2-0.4c-1.8-3.9-5.4-6.7-9.6-7.7l-0.6-0.1l-0.1-0.6C85.8,103.6,80.1,99,73.6,99c-5,0-9.6,2.7-12.1,7l-0.2,0.4l-0.5,0
	c-4.8,0.2-9.1,2.7-11.7,6.8l-1,1.6l-0.6-1.7c-1.6-4.3-5.5-7.3-10-7.6l-0.8-0.1v-8.2l0.8-0.1C44,96.2,49.7,92.2,53,86l0.2-0.3
	l0.4-0.1c4.4-1,8.5-3.6,11.5-7.4c3.3-4.1,5.1-9.3,5.1-14.8c0-8.2-4.1-15.8-10.8-19.8l-0.4-0.2l0-0.5c-0.7-13.9-11.4-24.7-24.2-24.7
	c-4.9,0-9.7,1.6-13.7,4.6c-0.7,0.5-0.9,1.5-0.3,2.3c0.5,0.7,1.5,0.9,2.3,0.3c3.5-2.6,7.6-4,11.8-4c11.6,0,21,10.3,21,23
	c0,0.6,0.3,1.2,0.9,1.4c6.3,3.2,10.3,10.1,10.3,17.6c0,9.5-6.5,17.8-15.1,19.2c-0.5,0.1-1,0.4-1.2,0.9c-2.6,5.5-7.4,9.2-12.9,10.3
	l-1,0.2V71.6l12-11.1c0.7-0.6,0.7-1.6,0.1-2.3c-0.3-0.3-0.7-0.5-1.1-0.5c-0.4,0-0.8,0.1-1.2,0.4l-9.9,9.1V49.4
	c0-0.9-0.7-1.6-1.6-1.6s-1.6,0.7-1.6,1.6v30.8l-9.9-9.1c-0.3-0.3-0.7-0.4-1.2-0.4s-0.8,0.2-1.1,0.5c-0.3,0.3-0.4,0.7-0.4,1.2
	c0,0.4,0.2,0.8,0.5,1.1l12,11.1v9.5l-1-0.1c-5.9-0.8-11-4.7-13.8-10.5c-0.2-0.5-0.6-0.8-1.1-0.9c-8.3-1.8-14.3-9.8-14.3-19
	c0-7.3,3.7-13.9,9.6-17.3c0.5-0.3,0.8-0.8,0.8-1.4c0-0.1,0-0.1,0-0.2l0,0v-0.1c0-3.2,0.6-6.3,1.8-9.2c0.3-0.9,0.7-1.7,1.2-2.5
	c0.2-0.4,0.3-0.8,0.1-1.2c-0.1-0.4-0.4-0.8-0.8-1c-0.4-0.2-0.8-0.3-1.2-0.1c-0.4,0.1-0.8,0.4-1,0.8c-0.5,0.9-1,1.9-1.3,2.9
	c-1.2,3-1.9,6.1-2,9.4l0,0.5l-0.4,0.3C3.8,48.3,0,55.5,0,63.5c0,10.3,6.5,19.4,15.7,21.9l0.4,0.1l0.2,0.3
	c3.4,6.4,9.6,10.7,16.4,11.4l0.8,0.1v8.6l-0.6,0.2c-2.6,0.9-4.7,2.7-6.1,5l-0.2,0.4l-0.5,0c-5.6,0.3-10.2,4.4-11.1,10l-0.1,0.5
	l-0.4,0.2c-4.2,1.9-7.4,5.6-8.5,10.1l-0.2,0.7H1.6c-0.9,0-1.6,0.7-1.6,1.6c0,0.9,0.7,1.6,1.6,1.6h146.7c0.9,0,1.6-0.7,1.6-1.6
	C149.9,133.7,149.2,132.9,148.3,132.9z M9,132.9l0.5-1.2c1.3-3.4,4-5.9,7.5-7c0.3-0.1,0.6-0.3,0.8-0.6c0.2-0.3,0.3-0.6,0.3-0.9
	c0.1-4.8,4-8.5,8.7-8.5c0.2,0,0.4,0,0.7,0c0.7,0,1.3-0.3,1.6-1c1.3-3.1,4.3-5.1,7.7-5.1c4.3,0,8,3.4,8.3,7.7
	c0.1,0.8,0.7,1.4,1.5,1.5c0.7,0.1,1.5,0.2,2.2,0.5l0,0c0.1,0,0.2,0.1,0.3,0.1l0.1,0c0.1,0.1,0.2,0.1,0.4,0.2l0.1,0.1
	c0.2,0.1,0.3,0.2,0.5,0.3l0.1,0c0.1,0,0.1,0.1,0.2,0.1c0,0,0.1,0.1,0.1,0.1l0.1,0c0.1,0.1,0.2,0.1,0.3,0.2c0.1,0,0.1,0.1,0.2,0.1
	c0.1,0.1,0.2,0.2,0.3,0.3l0.1,0.1c0.3,0.2,0.5,0.5,0.8,0.8l0.1,0.1c0.1,0.1,0.2,0.3,0.3,0.4l0.1,0.1c0.2,0.3,0.4,0.6,0.6,0.9
	l0.1,0.1c0.1,0.1,0.1,0.2,0.2,0.4l0.1,0.1c0.1,0.2,0.1,0.3,0.2,0.5c0.2,0.5,0.6,0.9,1.2,1c0.2,0.1,0.5,0.1,0.7,0.2
	c0.1,0,0.1,0,0.2,0.1l0.1,0c0.2,0.1,0.3,0.1,0.5,0.2c0.1,0,0.1,0.1,0.2,0.1l0.1,0c0.1,0.1,0.3,0.1,0.4,0.2c0.1,0,0.2,0.1,0.2,0.1
	l0,0c0.1,0.1,0.3,0.1,0.4,0.2c0.1,0.1,0.2,0.1,0.3,0.2c0.1,0.1,0.2,0.2,0.4,0.2c0.1,0.1,0.2,0.1,0.2,0.2c0.1,0.1,0.2,0.2,0.3,0.3
	l0,0c0.1,0.1,0.1,0.1,0.2,0.2c0.1,0.1,0.2,0.2,0.3,0.3l0,0.1c0,0,0.1,0.1,0.1,0.1c0.1,0.1,0.2,0.3,0.3,0.4l0,0c0,0,0.1,0.1,0.1,0.1
	c0.2,0.2,0.3,0.4,0.4,0.6c0,0,0,0.1,0.1,0.1l0,0c0.1,0.2,0.2,0.3,0.3,0.5c0,0.1,0.1,0.1,0.1,0.2l0,0.1c0.1,0.1,0.1,0.3,0.2,0.4
	c0,0.1,0.1,0.1,0.1,0.2l0,0.1c0.1,0.1,0.1,0.3,0.2,0.4c0,0.1,0.1,0.2,0.1,0.3c0,0.1,0.1,0.3,0.1,0.4c0,0.1,0.1,0.2,0.1,0.3
	c0,0.1,0.1,0.3,0.1,0.4c0,0.1,0,0.2,0.1,0.3c0,0,0,0.1,0,0.1l0,0l0.2,1L9,132.9L9,132.9z M65.3,132.9l-0.1-0.8c0,0,0-0.1,0-0.1
	c0-0.3-0.1-0.6-0.1-0.8l0,0c0-0.3-0.1-0.6-0.2-0.8l0,0c-0.1-0.3-0.1-0.5-0.2-0.8l0-0.1c-0.1-0.2-0.2-0.5-0.3-0.8l0-0.1
	c-0.1-0.2-0.2-0.5-0.3-0.7l-0.1-0.1c-0.1-0.2-0.2-0.5-0.4-0.7l-0.1-0.1c-0.1-0.2-0.3-0.5-0.4-0.7l-0.1-0.1c-0.2-0.2-0.3-0.5-0.5-0.7
	l0-0.1c-0.2-0.2-0.3-0.4-0.5-0.6l0,0c-0.2-0.2-0.4-0.4-0.6-0.6l0,0c-0.2-0.2-0.4-0.4-0.6-0.5l-0.1-0.1c-0.2-0.2-0.4-0.3-0.6-0.5
	l-0.1-0.1c-0.2-0.1-0.4-0.3-0.7-0.4l-0.1-0.1c-0.2-0.1-0.5-0.3-0.7-0.4l-0.1,0c-0.3-0.1-0.5-0.2-0.7-0.3l-0.1,0
	c-0.3-0.1-0.5-0.2-0.8-0.3l-0.4-0.1l-0.2-0.4c0,0,0-0.1,0-0.1c-0.1-0.2-0.2-0.4-0.3-0.5c0-0.1-0.1-0.1-0.1-0.2l-0.1-0.1
	c-0.1-0.1-0.1-0.2-0.2-0.3c-0.1-0.1-0.1-0.2-0.2-0.3c-0.1-0.1-0.1-0.2-0.2-0.3c-0.1-0.1-0.2-0.2-0.2-0.3c0,0-0.1-0.1-0.1-0.1
	l-0.1-0.1c-0.2-0.2-0.4-0.5-0.6-0.7L54,118c-0.1-0.1-0.2-0.2-0.3-0.3l0,0c-0.1-0.1-0.1-0.1-0.2-0.2c-0.1-0.1-0.2-0.2-0.3-0.3
	c-0.1-0.1-0.2-0.1-0.2-0.2l-0.1-0.1c-0.1-0.1-0.2-0.1-0.3-0.2c-0.1-0.1-0.3-0.2-0.4-0.3c0,0-0.1,0-0.1-0.1l0,0l-0.7-0.5l0.4-0.7
	c2-3.4,5.7-5.5,9.6-5.5c0.2,0,0.5,0,0.8,0c0.7,0.1,1.3-0.3,1.6-1c1.7-4,5.5-6.5,9.8-6.5c5.5,0,10.2,4.3,10.6,9.8
	c0.1,0.8,0.7,1.4,1.5,1.5c4.2,0.3,7.8,3.1,9.2,7c0.2,0.5,0.6,0.9,1.2,1c5,1.1,8.7,5.3,9.1,10.4l0.1,1L65.3,132.9L65.3,132.9z"/>
<path class="st0" d="M82.2,37.9c-3.6-1.1-4.1-1.7-5.2-5.2c-0.3-0.9-1.1-1.5-2-1.5c-0.9,0-1.8,0.6-2,1.5c-1.1,3.6-1.7,4.1-5.2,5.2
	c-0.9,0.3-1.5,1.1-1.5,2c0,0.9,0.6,1.8,1.5,2c3.6,1.1,4.1,1.7,5.2,5.2c0.3,0.9,1.1,1.5,2,1.5c0.9,0,1.8-0.6,2-1.5
	c1.1-3.6,1.7-4.1,5.2-5.2c0.9-0.3,1.5-1.1,1.5-2C83.7,39,83.1,38.2,82.2,37.9z M78.2,40.7c-1.1,0.6-1.9,1.4-2.5,2.5l-0.8,1.4
	l-0.8-1.4c-0.6-1.1-1.4-1.9-2.5-2.5L70.2,40l1.4-0.8c1.1-0.6,1.9-1.4,2.5-2.5l0.8-1.4l0.8,1.4c0.6,1.1,1.4,1.9,2.5,2.5l1.4,0.8
	L78.2,40.7z"/>
<path class="st0" d="M104.1,16.8c-4.4-1.4-5.2-2.1-6.5-6.5c-0.3-1-1.2-1.6-2.2-1.6c-1,0-1.9,0.6-2.2,1.6c-1.4,4.4-2.1,5.2-6.5,6.5
	C85.7,17.1,85,18,85,19c0,1,0.6,1.9,1.6,2.2c2.2,0.7,3.5,1.2,4.4,2.1c0.9,0.9,1.4,2.2,2.1,4.4c0.3,1,1.2,1.6,2.2,1.6
	c1,0,1.9-0.6,2.2-1.6c1.4-4.4,2.1-5.2,6.5-6.5c1-0.3,1.6-1.2,1.6-2.2C105.7,18,105.1,17.1,104.1,16.8z M100.2,19.8c-2,0.9-3.1,2-4,4
	l-0.8,1.7l-0.8-1.7c-0.9-2-2-3.1-4-4L88.8,19l1.7-0.8c2-0.9,3.1-2,4-4l0.8-1.7l0.8,1.7c0.9,2,2,3.1,4,4l1.7,0.8L100.2,19.8z"/>
<path class="st0" d="M146.8,116.4c-4.4-1.4-5.2-2.1-6.5-6.5c-0.3-1-1.2-1.6-2.2-1.6c-1,0-1.9,0.6-2.2,1.6c-1.4,4.4-2.1,5.2-6.5,6.5
	c-1,0.3-1.6,1.2-1.6,2.2c0,1,0.6,1.9,1.6,2.2c2.2,0.7,3.5,1.2,4.4,2.1c0.9,0.9,1.4,2.2,2.1,4.4c0.3,1,1.2,1.6,2.2,1.6
	c1,0,1.9-0.6,2.2-1.6c1.4-4.4,2.1-5.2,6.5-6.5c1-0.3,1.6-1.2,1.6-2.2C148.4,117.6,147.7,116.7,146.8,116.4z M142.9,119.4
	c-2,0.9-3.1,2-4,4l-0.8,1.7l-0.8-1.7c-0.9-2-2-3.1-4-4l-1.7-0.8l1.7-0.8c2-0.9,3.1-2,4-4l0.8-1.7l0.8,1.7c0.9,2,2,3.1,4,4l1.7,0.8
	L142.9,119.4z"/>
<path class="st0" d="M19.8,100.7c-3.6-1.1-4.1-1.7-5.2-5.2c-0.1-0.5-0.4-0.8-0.8-1.1c-0.4-0.3-0.8-0.4-1.3-0.4c-0.9,0-1.8,0.6-2,1.5
	c-1.1,3.6-1.7,4.1-5.2,5.2c-0.9,0.3-1.5,1.1-1.5,2c0,0.9,0.6,1.8,1.5,2c3.6,1.1,4.1,1.7,5.2,5.2c0.3,0.9,1.1,1.5,2,1.5
	c0.9,0,1.8-0.6,2-1.5c1.1-3.6,1.7-4.1,5.2-5.2c0.9-0.3,1.5-1.1,1.5-2C21.3,101.8,20.7,100.9,19.8,100.7z M15.8,103.5
	c-1.1,0.6-1.9,1.4-2.5,2.5l-0.8,1.4l-0.8-1.4c-0.6-1.1-1.4-1.9-2.5-2.5l-1.4-0.8l1.4-0.8c1.1-0.6,1.9-1.4,2.5-2.5l0.8-1.4l0.8,1.4
	c0.6,1.1,1.4,1.9,2.5,2.5l1.4,0.8L15.8,103.5z"/>
</svg>
