<?xml version="1.0" encoding="iso-8859-1"?>
<!-- Generator: Adobe Illustrator 21.0.2, SVG Export Plug-In . SVG Version: 6.00 Build 0)  -->
<svg version="1.1" id="&#x421;&#x43B;&#x43E;&#x439;_1"
	 xmlns="http://www.w3.org/2000/svg" xmlns:xlink="http://www.w3.org/1999/xlink" x="0px" y="0px" viewBox="0 0 30 30"
	 style="enable-background:new 0 0 30 30;" xml:space="preserve">
<linearGradient id="SVGID_1_" gradientUnits="userSpaceOnUse" x1="0" y1="15" x2="30" y2="15">
	<stop  offset="0" style="stop-color:#E3CFE1"/>
	<stop  offset="1" style="stop-color:#E3F1F0"/>
</linearGradient>
<circle style="fill:url(#SVGID_1_);" cx="15" cy="15" r="15"/>
<g>
	<g>
		<g>
			<defs>
				<rect id="SVGID_2_" x="7.2" y="5" width="15.6" height="20"/>
			</defs>
			<clipPath id="SVGID_3_">
				<use xlink:href="#SVGID_2_"  style="overflow:visible;"/>
			</clipPath>
			<path style="clip-path:url(#SVGID_3_);fill:#493F52;" d="M20.782,7.102c-1.367-1.312-3.258-2.035-5.326-2.035
				c-3.159,0-5.101,1.295-6.175,2.381C7.958,8.787,7.2,10.564,7.2,12.324c0,2.21,0.924,3.907,2.473,4.538
				c0.104,0.043,0.208,0.064,0.311,0.064c0.327,0,0.585-0.214,0.675-0.556c0.052-0.197,0.173-0.682,0.226-0.892
				c0.113-0.416,0.022-0.616-0.224-0.906c-0.448-0.53-0.656-1.156-0.656-1.972c0-2.422,1.803-4.996,5.146-4.996
				c2.652,0,4.3,1.508,4.3,3.934c0,1.531-0.33,2.949-0.929,3.993c-0.417,0.725-1.149,1.59-2.272,1.59
				c-0.486,0-0.922-0.2-1.198-0.548c-0.26-0.329-0.346-0.754-0.241-1.197c0.118-0.5,0.28-1.023,0.436-1.527
				c0.285-0.922,0.553-1.792,0.553-2.486c0-1.188-0.73-1.986-1.817-1.986c-1.381,0-2.463,1.403-2.463,3.194
				c0,0.878,0.234,1.535,0.339,1.787c-0.174,0.737-1.208,5.12-1.404,5.947c-0.113,0.482-0.797,4.293,0.334,4.597
				c1.271,0.341,2.407-3.37,2.522-3.789c0.093-0.341,0.422-1.631,0.622-2.424c0.613,0.591,1.601,0.99,2.562,0.99
				c1.812,0,3.441-0.815,4.588-2.295c1.112-1.436,1.724-3.437,1.724-5.634C22.806,10.031,22.068,8.337,20.782,7.102L20.782,7.102z"
				/>
		</g>
	</g>
</g>
</svg>
