<?xml version="1.0" encoding="utf-8"?>
<!-- Generator: Adobe Illustrator 21.0.2, SVG Export Plug-In . SVG Version: 6.00 Build 0)  -->
<svg version="1.1" id="Слой_1" xmlns="http://www.w3.org/2000/svg" xmlns:xlink="http://www.w3.org/1999/xlink" x="0px" y="0px"
	 viewBox="0 0 93.7 119.7" style="enable-background:new 0 0 93.7 119.7;" xml:space="preserve">
<style type="text/css">
	.st0{clip-path:url(#SVGID_2_);fill:#493F52;}
</style>
<g>
	<g>
		<g>
			<defs>
				<rect id="SVGID_1_" width="93.5" height="119.8"/>
			</defs>
			<clipPath id="SVGID_2_">
				<use xlink:href="#SVGID_1_"  style="overflow:visible;"/>
			</clipPath>
			<path class="st0" d="M81.4,12.6C73.2,4.7,61.9,0.4,49.5,0.4c-18.9,0-30.6,7.8-37,14.3C4.5,22.7,0,33.3,0,43.9
				c0,13.2,5.5,23.4,14.8,27.2c0.6,0.3,1.2,0.4,1.9,0.4c2,0,3.5-1.3,4-3.3c0.3-1.2,1-4.1,1.4-5.3c0.7-2.5,0.1-3.7-1.3-5.4
				c-2.7-3.2-3.9-6.9-3.9-11.8c0-14.5,10.8-29.9,30.8-29.9c15.9,0,25.8,9,25.8,23.6c0,9.2-2,17.7-5.6,23.9
				c-2.5,4.3-6.9,9.5-13.6,9.5c-2.9,0-5.5-1.2-7.2-3.3c-1.6-2-2.1-4.5-1.4-7.2c0.7-3,1.7-6.1,2.6-9.2c1.7-5.5,3.3-10.7,3.3-14.9
				c0-7.1-4.4-11.9-10.9-11.9c-8.3,0-14.8,8.4-14.8,19.1c0,5.3,1.4,9.2,2,10.7c-1,4.4-7.2,30.7-8.4,35.6c-0.7,2.9-4.8,25.7,2,27.5
				c7.6,2,14.4-20.2,15.1-22.7c0.6-2,2.5-9.8,3.7-14.5C44,85.6,49.9,88,55.7,88c10.9,0,20.6-4.9,27.5-13.8
				c6.7-8.6,10.3-20.6,10.3-33.8C93.5,30.1,89.1,20,81.4,12.6L81.4,12.6z"/>
		</g>
	</g>
</g>
</svg>
