<?xml version="1.0" encoding="iso-8859-1"?>
<!-- Generator: Adobe Illustrator 21.0.2, SVG Export Plug-In . SVG Version: 6.00 Build 0)  -->
<svg version="1.1" id="&#x421;&#x43B;&#x43E;&#x439;_1"
	 xmlns="http://www.w3.org/2000/svg" xmlns:xlink="http://www.w3.org/1999/xlink" x="0px" y="0px" viewBox="0 0 255.12 141.73"
	 style="enable-background:new 0 0 255.12 141.73;" xml:space="preserve">
<g>
	<g>
		<defs>
			<rect id="SVGID_1_" x="80.701" y="11.73" width="93.478" height="119.84"/>
		</defs>
		<clipPath id="SVGID_2_">
			<use xlink:href="#SVGID_1_"  style="overflow:visible;"/>
		</clipPath>
		<path style="clip-path:url(#SVGID_2_);fill:#493F52;" d="M162.085,24.326c-8.19-7.862-19.524-12.192-31.913-12.192
			c-18.926,0-30.566,7.757-36.998,14.266c-7.927,8.02-12.473,18.668-12.473,29.217c0,13.244,5.539,23.408,14.817,27.191
			c0.622,0.255,1.248,0.382,1.862,0.382c1.958,0,3.508-1.28,4.046-3.334c0.313-1.179,1.038-4.086,1.355-5.347
			c0.675-2.494,0.13-3.691-1.344-5.428c-2.683-3.174-3.933-6.929-3.933-11.814c0-14.512,10.806-29.936,30.833-29.936
			c15.891,0,25.763,9.034,25.763,23.571c0,9.176-1.977,17.671-5.565,23.925c-2.496,4.347-6.882,9.528-13.614,9.528
			c-2.912,0-5.527-1.197-7.178-3.282c-1.559-1.971-2.072-4.517-1.446-7.171c0.708-2.998,1.675-6.127,2.61-9.151
			c1.705-5.522,3.316-10.738,3.316-14.899c0-7.118-4.377-11.902-10.888-11.902c-8.276,0-14.761,8.408-14.761,19.138
			c0,5.263,1.4,9.2,2.031,10.71c-1.042,4.418-7.238,30.682-8.413,35.634c-0.68,2.891-4.774,25.724,2.001,27.545
			c7.615,2.046,14.42-20.193,15.113-22.706c0.56-2.044,2.526-9.771,3.729-14.523c3.676,3.541,9.593,5.934,15.351,5.934
			c10.856,0,20.618-4.884,27.491-13.754c6.663-8.602,10.333-20.592,10.333-33.76C174.212,41.873,169.792,31.725,162.085,24.326
			L162.085,24.326z M162.085,24.326"/>
	</g>
</g>
</svg>
