<?xml version="1.0" encoding="utf-8"?>
<!-- Generator: Adobe Illustrator 21.0.2, SVG Export Plug-In . SVG Version: 6.00 Build 0)  -->
<svg version="1.1" id="technologies" xmlns="http://www.w3.org/2000/svg" xmlns:xlink="http://www.w3.org/1999/xlink" x="0px"
	 y="0px" viewBox="0 0 150 150" style="enable-background:new 0 0 150 150;" xml:space="preserve">
<style type="text/css">
	.st0{fill:url(#SVGID_1_);}
	.st1{fill:url(#SVGID_2_);}
	.st2{fill:url(#SVGID_3_);}
	.st3{fill:url(#SVGID_4_);}
	.st4{fill:url(#SVGID_5_);}
	.st5{fill:url(#SVGID_6_);}
</style>
<g>
	<linearGradient id="SVGID_1_" gradientUnits="userSpaceOnUse" x1="2" y1="76.8597" x2="151.0537" y2="76.8597">
		<stop  offset="0" style="stop-color:#E1CEDF"/>
		<stop  offset="1" style="stop-color:#E2F0EE"/>
	</linearGradient>
	<path class="st0" d="M145.5,130.5h-4.2v-66c0-0.7-0.6-1.3-1.3-1.3s-1.3,0.6-1.3,1.3v13.9h-10.6v-22c0-1.8-1.5-3.3-3.3-3.3H90.5
		c-1.8,0-3.3,1.5-3.3,3.3v22H76.6V25.6l62.2,17.3v8.7c0,0.7,0.6,1.3,1.3,1.3s1.3-0.6,1.3-1.3v-8l3.9,1.1c0.6,0.2,1.2,0,1.7-0.3
		c0.5-0.4,0.8-1,0.8-1.6v-5.4c0-0.9-0.6-1.7-1.5-1.9L70.2,14.3c-0.6-0.2-1.2,0-1.7,0.3c-0.5,0.4-0.8,1-0.8,1.6v5.4
		c0,0.9,0.6,1.7,1.5,1.9l4.9,1.4v9h-41c-1.2,0-2.2,1-2.2,2.2v5.2c0,1.2,1,2.2,2.2,2.2h3.3v18.3c-0.4,0.3-0.6,0.6-0.8,1.1
		c-1.3,4-1.9,4.7-6,6c-0.9,0.3-1.5,1.1-1.5,2s0.6,1.7,1.5,2c2,0.6,3.2,1.1,4,1.9s1.3,2,1.9,4c0.1,0.5,0.4,0.8,0.8,1.1V85H22
		c-2.5,0-4.6,2-4.6,4.6v40.9l-0.6,0.1c-2.1,0.4-3.6,2.3-3.6,4.4c0,2.5,2,4.5,4.5,4.5h127.9c2.5,0,4.5-2,4.5-4.5
		S148,130.5,145.5,130.5z M89.7,55.6h36v22.8h-36V55.6z M138.8,80.9V85H39v-4.1H138.8z M131.5,101.8h-13.9c-1.3,0-2.4,1.1-2.4,2.4
		v26.4H76.6v-43h62.2v43h-5v-26.4C133.8,102.8,132.8,101.8,131.5,101.8z M131.3,104.3v26.2h-13.5v-26.2H131.3L131.3,104.3z
		 M52.1,78.4V58.7h13.6v19.7H52.1z M70.2,21.2v-4.3l75,20.9v4.3L70.2,21.2z M74.1,43.4v35h-5.9V58.8c0-1.4-1.2-2.6-2.6-2.6H52.2
		c-1.4,0-2.6,1.2-2.6,2.6v19.6h-9.7c1.2-3.7,1.9-4.4,5.8-5.6c0.9-0.3,1.5-1.1,1.5-2s-0.6-1.7-1.5-2c-4-1.3-4.7-1.9-6-6
		c-0.1-0.4-0.4-0.8-0.7-1V43.4H74.1z M33.5,40.9v-4.5h40.6v4.5H33.5z M33.3,71.6l-1.6-0.7l1.6-0.7c1.5-0.7,2.4-1.5,3.2-2.8
		c0.2-0.3,0.3-0.6,0.5-0.9l0.7-1.6l0.7,1.6c0.2,0.4,0.4,0.7,0.6,1.1c0.7,1.2,1.7,1.9,3.1,2.6l1.6,0.7l-1.6,0.7
		c-1.4,0.7-2.3,1.4-3.1,2.6c-0.2,0.3-0.4,0.7-0.6,1.1l-0.7,1.6L37,75.2c-0.2-0.3-0.3-0.6-0.5-0.9C35.7,73.1,34.8,72.3,33.3,71.6z
		 M19.9,89.6c0-1.1,0.9-2,2-2H74v42.1h-6.9v0.1h-1.6V104c0-1.3-1-2.3-2.3-2.3H30.4c-1.3,0-2.3,1-2.3,2.3v25.8h2.5v-2.3H63v3.1H30.6
		v-0.8h-2.5h-0.8v0.8h-7.4C19.9,130.6,19.9,89.6,19.9,89.6z M48,111.9h15.1v5.2H30.6v-5.2H35c0.7,0,1.3-0.6,1.3-1.3
		c0-0.7-0.6-1.3-1.3-1.3h-4.4v-5.2H63v5.2H48c-0.7,0-1.3,0.6-1.3,1.3S47.3,111.9,48,111.9z M63.1,119.6v5.2H30.6v-5.2H63.1z
		 M145.5,136.9H17.6c-1.1,0-1.9-0.9-1.9-1.9s0.9-1.9,1.9-1.9h127.9c1.1,0,1.9,0.9,1.9,1.9S146.6,136.9,145.5,136.9z"/>
	<linearGradient id="SVGID_2_" gradientUnits="userSpaceOnUse" x1="2" y1="111.8" x2="151.0537" y2="111.8">
		<stop  offset="0" style="stop-color:#E1CEDF"/>
		<stop  offset="1" style="stop-color:#E2F0EE"/>
	</linearGradient>
	<path class="st1" d="M109.7,118.5h-1.9v-13.6c0-1.3-1.1-2.4-2.4-2.4H85.9c-1.3,0-2.4,1.1-2.4,2.4v13.6h-1.9c-0.7,0-1.3,0.6-1.3,1.3
		c0,0.7,0.6,1.3,1.3,1.3h28.2c0.7,0,1.3-0.6,1.3-1.3C111,119.1,110.4,118.5,109.7,118.5z M105.3,118.5H86v-13.4h19.2v13.4H105.3z"/>
	<linearGradient id="SVGID_3_" gradientUnits="userSpaceOnUse" x1="2" y1="119.5" x2="151.0537" y2="119.5">
		<stop  offset="0" style="stop-color:#E1CEDF"/>
		<stop  offset="1" style="stop-color:#E2F0EE"/>
	</linearGradient>
	<path class="st2" d="M129,118.1v2.8c0,0.7-0.6,1.3-1.3,1.3s-1.3-0.6-1.3-1.3v-2.8c0-0.7,0.6-1.3,1.3-1.3
		C128.4,116.8,129,117.4,129,118.1z"/>
	<linearGradient id="SVGID_4_" gradientUnits="userSpaceOnUse" x1="2" y1="93.3" x2="151.0537" y2="93.3">
		<stop  offset="0" style="stop-color:#E1CEDF"/>
		<stop  offset="1" style="stop-color:#E2F0EE"/>
	</linearGradient>
	<path class="st3" d="M119.2,92.1c-0.2-0.3-0.5-0.5-0.8-0.6h-0.1c-1-0.3-1.7-0.6-2.3-0.9c-0.3-0.2-0.6-0.3-0.8-0.6
		c-0.3-0.3-0.6-0.6-0.8-1.1c-0.3-0.6-0.6-1.3-0.9-2.3c-0.1-0.4-0.4-0.8-0.7-1c-0.3-0.2-0.7-0.4-1.2-0.4c-0.9,0-1.6,0.5-1.9,1.4
		c-1,3.3-1.5,3.8-4.8,4.8c-0.8,0.3-1.4,1-1.4,1.9s0.5,1.6,1.4,1.9c3.3,1,3.8,1.5,4.8,4.8c0.3,0.8,1,1.4,1.9,1.4s1.6-0.5,1.9-1.4
		c0.3-1,0.6-1.7,0.9-2.3c0.2-0.4,0.5-0.8,0.8-1.1c0.2-0.2,0.5-0.4,0.8-0.6c0.6-0.3,1.3-0.6,2.3-0.9h0.1c0.3-0.1,0.6-0.3,0.8-0.6
		c0.3-0.3,0.4-0.8,0.4-1.2C119.6,92.9,119.4,92.4,119.2,92.1z M115.1,93.7l-0.5,0.3c-0.1,0.1-0.2,0.1-0.3,0.2
		c-0.9,0.5-1.5,1.2-2,2.1l-0.7,1.3l-0.7-1.3c-0.6-1-1.3-1.7-2.3-2.3l-1.3-0.7l1.3-0.7c1-0.6,1.7-1.3,2.3-2.3l0.7-1.3l0.7,1.3
		c0.5,0.9,1.1,1.6,2,2.1c0.1,0.1,0.2,0.1,0.3,0.2l0.5,0.3l0.7,0.4L115.1,93.7z"/>
	<linearGradient id="SVGID_5_" gradientUnits="userSpaceOnUse" x1="2" y1="19.95" x2="151.0537" y2="19.95">
		<stop  offset="0" style="stop-color:#E1CEDF"/>
		<stop  offset="1" style="stop-color:#E2F0EE"/>
	</linearGradient>
	<path class="st4" d="M145.7,18c-4-1.3-4.7-1.9-6-6c-0.3-0.9-1.1-1.5-2-1.5s-1.7,0.6-2,1.5c-1.3,4-1.9,4.7-6,6
		c-0.9,0.3-1.5,1.1-1.5,2s0.6,1.7,1.5,2c2,0.6,3.2,1.1,4,1.9s1.3,2,1.9,4c0.3,0.9,1.1,1.5,2,1.5s1.7-0.6,2-1.5c1.3-4,1.9-4.7,6-6
		c0.9-0.3,1.5-1.1,1.5-2C147.2,19.1,146.6,18.3,145.7,18z M142.2,20.7c-1.8,0.9-2.8,1.9-3.7,3.7l-0.7,1.6l-0.7-1.6
		c-0.9-1.8-1.9-2.8-3.7-3.7l-1.6-0.7l1.6-0.7c1.8-0.9,2.8-1.9,3.7-3.7l0.7-1.6l0.7,1.6c0.9,1.8,1.9,2.8,3.7,3.7l1.6,0.7L142.2,20.7z
		"/>
	<linearGradient id="SVGID_6_" gradientUnits="userSpaceOnUse" x1="2" y1="122.5" x2="151.0537" y2="122.5">
		<stop  offset="0" style="stop-color:#E1CEDF"/>
		<stop  offset="1" style="stop-color:#E2F0EE"/>
	</linearGradient>
	<path class="st5" d="M14.7,120.6c-3.3-1-3.8-1.5-4.8-4.8c-0.3-0.8-1-1.4-1.9-1.4s-1.6,0.5-1.9,1.4c-1,3.3-1.5,3.8-4.8,4.8
		c-0.8,0.3-1.4,1-1.4,1.9s0.5,1.6,1.4,1.9c3.3,1,3.8,1.5,4.8,4.8c0.3,0.8,1,1.4,1.9,1.4s1.6-0.5,1.9-1.4c1-3.3,1.5-3.8,4.8-4.8
		c0.8-0.3,1.4-1,1.4-1.9C16,121.6,15.5,120.8,14.7,120.6z M11,123.2c-1,0.6-1.7,1.3-2.3,2.3L8,126.7l-0.7-1.3
		c-0.6-1-1.3-1.7-2.3-2.3l-1.3-0.7l1.3-0.7c1-0.6,1.7-1.3,2.3-2.3l0.7-1.3l0.7,1.3c0.6,1,1.3,1.7,2.3,2.3l1.3,0.7L11,123.2z"/>
</g>
</svg>
