<?xml version="1.0" encoding="utf-8"?>
<!-- Generator: Adobe Illustrator 21.0.2, SVG Export Plug-In . SVG Version: 6.00 Build 0)  -->
<svg version="1.1" id="rent" xmlns="http://www.w3.org/2000/svg" xmlns:xlink="http://www.w3.org/1999/xlink" x="0px" y="0px"
	 viewBox="0 0 150 150" style="enable-background:new 0 0 150 150;" xml:space="preserve">
<style type="text/css">
	.st0{fill:#FFFFFF;}
</style>
<g>
	<path class="st0" d="M145,67.6h-42.8v-5.9c0-3.9-3.2-7.1-7.1-7.1S88,57.8,88,61.7v5.9H45.2c-2.5,0-4.7,1.9-4.9,4.4
		c0,0.2,0,0.3,0,0.5v38.1c0,2.7,2.2,5,5,5h8v17.7H20.9V54.9l51.9-34.5l51.9,34.5v6.6c0,0.7,0.6,1.3,1.3,1.3c0.7,0,1.3-0.6,1.3-1.3
		v-4.9l8,5.3c2.2,1.5,5,1.5,7.2,0c1.8-1.2,2.9-3.2,2.9-5.4s-1.1-4.2-2.9-5.4l-68-45.2c-1-0.6-2.2-0.6-3.2,0L31.7,32.1
		c-0.6,0.4-0.7,1.2-0.4,1.8c0.2,0.3,0.5,0.5,0.8,0.5c0.3,0.1,0.7,0,1-0.2L72.8,7.8l68.2,45.3c1.1,0.7,1.8,1.9,1.8,3.3
		c0,1.3-0.6,2.5-1.8,3.3c-1.3,0.9-3,0.9-4.4,0L74.4,18.4c-1-0.7-2.2-0.7-3.2,0L9,59.7c-1.3,0.9-3,0.9-4.4,0
		c-1.1-0.7-1.8-1.9-1.8-3.3c0-1.3,0.6-2.5,1.8-3.3l17.3-11.5c0.3-0.2,0.5-0.5,0.5-0.8c0.1-0.3,0-0.7-0.2-1s-0.5-0.5-0.8-0.5
		c-0.3-0.1-0.7,0-1,0.2L3.2,51c-1.8,1.2-2.9,3.2-2.9,5.4s1.1,4.2,2.9,5.4C4.3,62.6,5.5,63,6.8,63c1.3,0,2.5-0.4,3.6-1.1l7.9-5.3
		v76.8H9.1c-3.1,0-5.7,2.5-5.7,5.7c0,3.1,2.5,5.7,5.7,5.7h127.2c3.1,0,5.7-2.5,5.7-5.7c0-3.1-2.5-5.7-5.7-5.7h-9.2v-11.6
		c0-0.7-0.6-1.3-1.3-1.3c-0.7,0-1.3,0.6-1.3,1.3v11.6h-22.4v-17.7H145c2.7,0,5-2.2,5-5V72.6C150,69.8,147.8,67.6,145,67.6z
		 M90.5,61.7c0-2.5,2-4.6,4.6-4.6s4.6,2.1,4.6,4.6v5.9h-9.1V61.7z M88,142.1H9.1c-1.7,0-3.1-1.4-3.1-3.1c0-1.7,1.4-3.1,3.1-3.1H88
		V142.1z M88,133.4H55.7v-17.7H88V133.4z M99.7,142.1h-9.1v-26.4h9.1V142.1z M136.4,135.9c1.7,0,3.1,1.4,3.1,3.1
		c0,1.7-1.4,3.1-3.1,3.1h-34.1v-6.2L136.4,135.9L136.4,135.9z M147.4,110.7c0,1.3-1.1,2.4-2.4,2.4H45.2c-1.3,0-2.4-1.1-2.4-2.4V72.6
		c0-1.3,1.1-2.4,2.4-2.4H145c1.3,0,2.4,1.1,2.4,2.4V110.7z"/>
	<path class="st0" d="M74.3,101.1l-4.6-8.6l1-0.3c2.3-0.7,3.5-2.6,3.5-5.4c0-3.8-2.1-5.7-6.6-5.7h-6.2c-0.3,0-0.4,0.2-0.4,0.4v20.4
		c0,0.1,0.4,0.4,1.2,0.4c0.7,0,1.2-0.3,1.2-0.4v-9.1h4.1l4.7,9.1c0.2,0.3,0.4,0.5,0.6,0.5C73.5,102.4,74.4,101.6,74.3,101.1
		L74.3,101.1z M63.3,91.3v-8.5h4.3c2.7,0,4.2,1.5,4.2,4.2c0,1.9-0.7,4.2-4.2,4.2H63.3z"/>
	<path class="st0" d="M92,101.4c0,0.4-0.1,0.9-0.4,0.9H80.4c-0.4,0-0.9-0.2-0.9-0.4V81.4c0-0.2,0.5-0.4,0.9-0.4h11.2
		c0.3,0,0.4,0.5,0.4,0.9c0,0.5-0.2,0.9-0.4,0.9h-9.8v8.1h5.7c0.3,0,0.4,0.4,0.4,0.7c0,0.1-0.1,0.7-0.4,0.7h-5.7v8.1h9.8
		C91.8,100.4,92,100.9,92,101.4z"/>
	<path class="st0" d="M110.3,81.4v20.4c0,0.1-0.4,0.4-1.2,0.4c-0.8,0-1.3-0.2-1.6-0.8l-8.4-15.7v16.2c0,0.1-0.4,0.4-1.2,0.4
		c-0.7,0-1.2-0.3-1.2-0.4V81.4c0-0.2,0.5-0.4,1.2-0.4c1.1,0,1.4,0.1,2.3,1.7l7.7,15V81.4c0-0.2,0.4-0.4,1.2-0.4
		C109.8,81,110.3,81.3,110.3,81.4z"/>
	<g>
		<path class="st0" d="M129,82c0,0.5-0.2,1-0.4,1h-5.5v18.9c0,0.1-0.4,0.4-1.2,0.4c-0.7,0-1.2-0.3-1.2-0.4V82.9h-5.5
			c-0.2,0-0.4-0.4-0.4-1c0-0.4,0.2-0.9,0.4-0.9h13.3C128.9,81,129,81.5,129,82z"/>
	</g>
	<path class="st0" d="M72.8,31.9c-7,0-12.8,5.7-12.8,12.8s5.7,12.8,12.8,12.8c7,0,12.8-5.7,12.8-12.8S79.8,31.9,72.8,31.9z
		 M71.5,54.8l-1.1-0.3c-3.7-0.9-6.7-3.9-7.6-7.6l-0.3-1.1h8.9V54.8z M71.5,43.3h-8.9l0.3-1.1c0.9-3.7,3.9-6.7,7.5-7.5l1.1-0.3
		L71.5,43.3L71.5,43.3z M74,34.4l1.1,0.3c3.7,0.9,6.7,3.8,7.5,7.5l0.3,1.1H74L74,34.4L74,34.4z M75.1,54.6L74,54.8v-8.9h8.9L82.7,47
		C81.8,50.7,78.8,53.7,75.1,54.6z"/>
	<path class="st0" d="M42.9,83.7c-4.4-1.4-5.1-2.1-6.5-6.5c-0.3-1-1.2-1.6-2.2-1.6c-1,0-1.9,0.6-2.2,1.6c-1.4,4.4-2.1,5.1-6.5,6.5
		c-1,0.3-1.6,1.2-1.6,2.2c0,1,0.6,1.9,1.6,2.2c2.2,0.7,3.5,1.2,4.4,2.1c0.9,0.9,1.4,2.2,2.1,4.4c0.3,1,1.2,1.6,2.2,1.6
		c1,0,1.9-0.6,2.2-1.6c1.4-4.4,2.1-5.1,6.5-6.5c1-0.3,1.6-1.2,1.6-2.2C44.5,84.9,43.9,84,42.9,83.7z M39,86.7c-2,0.9-3.1,2-4,4
		l-0.8,1.7l-0.8-1.7c-0.9-2-2-3.1-4-4l-1.7-0.8l1.7-0.8c2-0.9,3.1-2,4-4l0.8-1.7L35,81c0.9,2,2,3.1,4,4l1.7,0.8L39,86.7z"/>
	<path class="st0" d="M144.4,107.1c-0.2-0.3-0.5-0.5-0.9-0.7c0,0-0.1,0-0.1-0.1c-1.1-0.3-1.9-0.6-2.5-1c-0.3-0.2-0.6-0.4-0.9-0.6
		c-0.4-0.3-0.6-0.7-0.9-1.2c-0.3-0.6-0.6-1.4-0.9-2.5c-0.1-0.4-0.4-0.8-0.8-1.1c-0.4-0.3-0.8-0.4-1.3-0.4c-0.9,0-1.8,0.6-2,1.5
		c-1.1,3.6-1.7,4.1-5.2,5.2c-0.9,0.3-1.5,1.1-1.5,2c0,0.9,0.6,1.8,1.5,2c3.6,1.1,4.1,1.7,5.2,5.2c0.3,0.9,1.1,1.5,2,1.5
		c0.9,0,1.8-0.6,2-1.5c0.3-1.1,0.6-1.9,0.9-2.5c0.3-0.5,0.5-0.9,0.9-1.2c0.3-0.2,0.5-0.4,0.9-0.6c0.6-0.3,1.4-0.6,2.5-1
		c0.1,0,0.1,0,0.1-0.1c0.4-0.1,0.7-0.4,0.9-0.7c0.3-0.4,0.5-0.8,0.5-1.3C144.8,107.9,144.7,107.5,144.4,107.1z M139.9,108.9
		l-0.6,0.3c-0.1,0.1-0.2,0.1-0.3,0.2c-1,0.6-1.6,1.3-2.2,2.3l-0.8,1.4l-0.8-1.4c-0.6-1.1-1.4-1.9-2.5-2.5l-1.4-0.8l1.4-0.8
		c1.1-0.6,1.9-1.4,2.5-2.5l0.8-1.4l0.8,1.4c0.6,1,1.2,1.7,2.2,2.3c0.1,0.1,0.2,0.1,0.3,0.2l0.6,0.3l0.8,0.4L139.9,108.9z"/>
	<path class="st0" d="M129.9,17.1c-4.4-1.4-5.1-2.1-6.5-6.5c-0.3-1-1.2-1.6-2.2-1.6c-1,0-1.9,0.6-2.2,1.6c-1.4,4.4-2.1,5.1-6.5,6.5
		c-1,0.3-1.6,1.2-1.6,2.2c0,1,0.6,1.9,1.6,2.2c2.2,0.7,3.5,1.2,4.4,2.1c0.9,0.9,1.4,2.2,2.1,4.4c0.3,1,1.2,1.6,2.2,1.6
		c1,0,1.9-0.6,2.2-1.6c1.4-4.4,2.1-5.1,6.5-6.5c1-0.3,1.6-1.2,1.6-2.2C131.5,18.3,130.9,17.4,129.9,17.1z M126,20.1
		c-2,0.9-3.1,2-4,4l-0.8,1.7l-0.8-1.7c-0.9-2-2-3.1-4-4l-1.7-0.8l1.7-0.8c2-0.9,3.1-2,4-4l0.8-1.7l0.8,1.7c0.9,2,2,3.1,4,4l1.7,0.8
		L126,20.1z"/>
	<path class="st0" d="M16,112.7c-3.6-1.1-4.1-1.7-5.2-5.2c-0.3-0.9-1.1-1.5-2-1.5c-0.9,0-1.8,0.6-2,1.5c-1.1,3.6-1.7,4.1-5.2,5.2
		c-0.9,0.3-1.5,1.1-1.5,2c0,0.9,0.6,1.8,1.5,2c3.6,1.1,4.1,1.7,5.2,5.2c0.3,0.9,1.1,1.5,2,1.5c0.9,0,1.8-0.6,2-1.5
		c1.1-3.6,1.7-4.1,5.2-5.2c0.9-0.3,1.5-1.1,1.5-2C17.5,113.8,16.9,113,16,112.7z M12,115.5c-1.1,0.6-1.9,1.4-2.5,2.5l-0.8,1.4L8,118
		c-0.6-1.1-1.4-1.9-2.5-2.5l-1.4-0.8l1.4-0.8c1.1-0.6,1.9-1.4,2.5-2.5l0.8-1.4l0.8,1.4c0.6,1.1,1.4,1.9,2.5,2.5l1.4,0.8L12,115.5z"
		/>
</g>
</svg>
