<?xml version="1.0" encoding="utf-8"?>
<!-- Generator: Adobe Illustrator 21.0.2, SVG Export Plug-In . SVG Version: 6.00 Build 0)  -->
<svg version="1.1" id="saving" xmlns="http://www.w3.org/2000/svg" xmlns:xlink="http://www.w3.org/1999/xlink" x="0px" y="0px"
	 viewBox="0 0 150 150" style="enable-background:new 0 0 150 150;" xml:space="preserve">
<style type="text/css">
	.st0{fill:url(#SVGID_1_);}
	.st1{fill:url(#SVGID_2_);}
	.st2{fill:url(#SVGID_3_);}
	.st3{fill:url(#SVGID_4_);}
	.st4{fill:url(#SVGID_5_);}
	.st5{fill:url(#SVGID_6_);}
</style>
<g>
	<linearGradient id="SVGID_1_" gradientUnits="userSpaceOnUse" x1="1" y1="109.65" x2="151.0833" y2="109.65">
		<stop  offset="0" style="stop-color:#E1CEDF"/>
		<stop  offset="1" style="stop-color:#E2F0EE"/>
	</linearGradient>
	<path class="st0" d="M116.9,106.8l-0.6-0.2V96.1l1,0.1c2.2,0.2,3.6,0.9,4.6,1.4c0.6,0.3,1,0.5,1.4,0.5c1.3,0,1.8-1.9,1.8-2.6
		c0-1.9-4.1-3-7.9-3.1h-0.9V90c0-0.1-0.4-0.4-0.8-0.4c-0.5,0-0.8,0.3-0.8,0.4v2.2l-0.8,0.1c-3.4,0.4-9.1,2.2-9.1,9.1
		c0,6,4.7,7.7,9.3,9.4l0.6,0.2v11.8l-1-0.1c-2.9-0.3-4.7-1.7-6-2.7c-0.8-0.6-1.4-1.1-1.9-1.1c-0.9,0-2,1.6-2,2.7c0,2.1,4,5.3,10,5.4
		h0.9v2.3c0,0.1,0.3,0.4,0.8,0.4c0.4,0,0.8-0.3,0.9-0.4V127l0.7-0.1c5.7-0.9,8.9-4.5,8.9-10C125.9,110.7,121.6,108.6,116.9,106.8z
		 M115,106.2l-1.2-0.5c-2.3-0.9-4.7-2.1-4.7-5c0-2.3,1.8-4,4.8-4.5l1-0.2L115,106.2L115,106.2z M116.9,122.7l-1.1,0.2v-11.3l1.3,0.6
		c2.2,1,4.4,2.4,4.4,5.5C121.5,120.2,119.8,122.1,116.9,122.7z"/>
	<linearGradient id="SVGID_2_" gradientUnits="userSpaceOnUse" x1="1" y1="74.95" x2="151.1" y2="74.95">
		<stop  offset="0" style="stop-color:#E1CEDF"/>
		<stop  offset="1" style="stop-color:#E2F0EE"/>
	</linearGradient>
	<path class="st1" d="M144,132.3c0,0-0.1,0-0.1-0.1c-1.1-0.3-1.9-0.6-2.5-1c-0.1-0.1-0.2-0.1-0.3-0.2c5.2-6.3,8-14.1,8-22.4
		c0-14.6-8.8-27.4-22.4-32.8l-0.6-0.2V58.7l8,5.3c2.2,1.5,5,1.5,7.2,0c1.8-1.2,2.9-3.2,2.9-5.4s-1.1-4.2-2.9-5.4l-17.1-11.4
		c-0.3-0.2-0.6-0.3-1-0.2c-0.3,0.1-0.6,0.3-0.8,0.5c-0.4,0.6-0.2,1.4,0.4,1.8l17.1,11.4c1.1,0.7,1.8,2,1.8,3.3s-0.6,2.5-1.8,3.3
		c-1.3,0.9-3.1,0.9-4.4,0L73.2,20.5c-0.1,0-0.1-0.1-0.2-0.1h-0.1c0,0-0.1,0-0.1-0.1h-0.1c0,0-0.1,0-0.2-0.1h-0.1
		c-0.9-0.3-1.8-0.2-2.5,0.3L7.7,61.9c-1.3,0.9-3.1,0.9-4.4,0c-1.1-0.7-1.8-2-1.8-3.3s0.6-2.6,1.8-3.3L71.6,9.9l40,26.6
		c0.3,0.2,0.6,0.3,1,0.2c0.3-0.1,0.6-0.3,0.8-0.5c0.4-0.6,0.2-1.4-0.4-1.8L73.2,7.9c-1-0.6-2.2-0.6-3.2,0L48.2,22.4v-6.1h1.5
		c1.1,0,1.9-0.9,1.9-1.9V7.9c0-1.1-0.9-1.9-1.9-1.9H27c-1.1,0-1.9,0.9-1.9,1.9v6.5c0,1.1,0.9,1.9,1.9,1.9h1.5v19.2L1.9,53.2
		C0.1,54.4-1,56.4-1,58.6c0,2.2,1.1,4.2,2.9,5.4c1.1,0.7,2.3,1.1,3.6,1.1S8,64.7,9.1,64l8-5.3v39.9c0,0.7,0.6,1.3,1.3,1.3
		c0.7,0,1.3-0.6,1.3-1.3V57l52-34.6l52,34.6v17.9l-1.1-0.3c-0.1,0-0.2-0.1-0.4-0.1l-0.4-0.1c-0.2,0-0.4-0.1-0.6-0.1
		c-0.1,0-0.2-0.1-0.4-0.1c-0.2,0-0.4-0.1-0.6-0.1c-0.1,0-0.2,0-0.3-0.1h-0.3c-0.1,0-0.2,0-0.4-0.1c-0.3,0-0.6-0.1-0.9-0.1
		c-0.1,0-0.2,0-0.3,0h-0.1c-0.2,0-0.4,0-0.6-0.1c-0.1,0-0.3,0-0.4,0c-0.2,0-0.4,0-0.6,0l0,0c-0.1,0-0.3,0-0.4,0c-0.2,0-0.4,0-0.7,0
		h-0.1c-0.1,0-0.2,0-0.2,0c-0.3,0-0.6,0-1,0l0,0c-16.7,0-31.2,11.8-34.5,28.1c-0.5,2.3-0.7,4.7-0.7,7.1c0,0.3,0,0.6,0,0.9
		c0.1,3.2,0.6,6.4,1.6,9.5c0,0.1,0.1,0.2,0.1,0.3v0.1c0.3,1,0.7,2,1.1,2.9l0.5,1.2H69V72.6c0-2-1.6-3.7-3.7-3.7H33.7
		c-2,0-3.7,1.6-3.7,3.7v51.1H19.6V112c0-0.7-0.6-1.3-1.3-1.3c-0.7,0-1.3,0.6-1.3,1.3v11.7H7.3c-2.8,0-5.1,2.3-5.1,5.1
		s2.3,5.1,5.1,5.1h81.8l0.3,0.2c6.6,6.3,15.3,9.8,24.4,9.8c6.9,0,13.6-2,19.3-5.7c0.6,0.7,1,1.7,1.5,3.3c0.3,0.9,1.1,1.5,2,1.5
		s1.8-0.6,2-1.5c0.3-1.1,0.6-1.9,0.9-2.5c0.3-0.5,0.5-0.9,0.9-1.2c0.3-0.2,0.5-0.4,0.9-0.6c0.6-0.3,1.4-0.6,2.5-1
		c0.1,0,0.1,0,0.1-0.1c0.4-0.1,0.7-0.4,0.9-0.7c0.3-0.4,0.5-0.8,0.5-1.3s-0.2-1-0.5-1.3C144.6,132.7,144.3,132.5,144,132.3z
		 M45.7,24.1L31,33.8V16.3h14.7V24.1z M27.6,13.8V8.5h21.5v5.3H27.6z M32.6,72.6c0-0.6,0.5-1.1,1.1-1.1h31.6c0.6,0,1.1,0.5,1.1,1.1
		v51.1H32.6V72.6z M7.3,131.4c-1.4,0-2.6-1.2-2.6-2.6c0-1.4,1.2-2.6,2.6-2.6h75.9l0.3,0.4c0.7,1.1,1.4,2.2,2.2,3.3l1.1,1.4
		L7.3,131.4L7.3,131.4z M113.8,141.5c-13.9,0-26.4-8.9-30.9-22.1c0-0.1-0.1-0.2-0.1-0.3c0-0.1-0.1-0.3-0.1-0.4
		c-0.1-0.2-0.1-0.5-0.2-0.7v-0.1c-0.6-1.9-0.9-3.9-1.1-5.9v-0.1c0-0.3,0-0.6-0.1-0.9v-0.2c0-0.2,0-0.5,0-0.7v-0.2c0-0.3,0-0.6,0-1
		c0-2.2,0.2-4.4,0.7-6.6c3.1-15.1,16.6-26.1,32-26.1l0,0c0.3,0,0.7,0,1.2,0l0,0c0.1,0,0.2,0,0.2,0c0.4,0,0.8,0,1.1,0.1h0.3
		c0.3,0,0.7,0.1,1,0.1h0.3c0.4,0,0.7,0.1,1.1,0.2c0.1,0,0.3,0,0.4,0.1c0.3,0.1,0.7,0.1,1,0.2c0.1,0,0.2,0,0.3,0.1h0.1
		c0.2,0,0.4,0.1,0.6,0.1c0.3,0.1,0.5,0.1,0.8,0.2c0.2,0.1,0.4,0.1,0.6,0.2s0.4,0.1,0.6,0.2l0.3,0.1c6.5,2.1,12.2,6.2,16.3,11.7
		c4.2,5.7,6.4,12.4,6.4,19.4c0,7.5-2.5,14.6-7.1,20.4c-0.3-0.6-0.5-1.3-0.8-2.1c-0.1-0.5-0.4-0.8-0.8-1.1c-0.4-0.3-0.8-0.4-1.3-0.4
		c-0.9,0-1.8,0.6-2,1.5c-1.1,3.6-1.7,4.1-5.2,5.2c-0.9,0.3-1.5,1.1-1.5,2s0.6,1.8,1.5,2c0.5,0.2,1,0.3,1.4,0.5
		C125.6,139.9,119.8,141.5,113.8,141.5z M140.4,134.8l-0.6,0.3c-0.1,0.1-0.2,0.1-0.3,0.2c-1,0.6-1.6,1.3-2.2,2.3l-0.8,1.4l-0.8-1.4
		c-0.2-0.3-0.4-0.6-0.6-0.9c-0.5-0.7-1.1-1.2-2-1.7l0,0l-1.3-0.8l1.4-0.8c1.1-0.6,1.9-1.4,2.5-2.5l0.8-1.4l0.8,1.4
		c0.1,0.1,0.1,0.2,0.2,0.3c0.5,0.8,1,1.4,1.7,1.9c0.1,0.1,0.2,0.1,0.3,0.2c0.1,0.1,0.2,0.1,0.3,0.2l0.6,0.3l0.8,0.4L140.4,134.8z"/>
	<linearGradient id="SVGID_3_" gradientUnits="userSpaceOnUse" x1="1" y1="96.5" x2="151.0833" y2="96.5">
		<stop  offset="0" style="stop-color:#E1CEDF"/>
		<stop  offset="1" style="stop-color:#E2F0EE"/>
	</linearGradient>
	<path class="st2" d="M60.5,94.3v4.4c0,0.7-0.6,1.3-1.3,1.3s-1.3-0.6-1.3-1.3v-4.4c0-0.7,0.6-1.3,1.3-1.3C60,93,60.5,93.6,60.5,94.3
		z"/>
	<linearGradient id="SVGID_4_" gradientUnits="userSpaceOnUse" x1="1" y1="62.2" x2="151.0833" y2="62.2">
		<stop  offset="0" style="stop-color:#E1CEDF"/>
		<stop  offset="1" style="stop-color:#E2F0EE"/>
	</linearGradient>
	<path class="st3" d="M54.2,60c-4.4-1.4-5.2-2.1-6.5-6.5c-0.3-1-1.2-1.6-2.2-1.6s-1.9,0.6-2.2,1.6c-1.4,4.4-2.1,5.2-6.5,6.5
		c-1,0.3-1.6,1.2-1.6,2.2s0.6,1.9,1.6,2.2c2.2,0.7,3.5,1.2,4.4,2.1s1.4,2.2,2.1,4.4c0.3,1,1.2,1.6,2.2,1.6s1.9-0.6,2.2-1.6
		c1.4-4.4,2.1-5.2,6.5-6.5c1-0.3,1.6-1.2,1.6-2.2C55.8,61.1,55.1,60.3,54.2,60z M50.3,63c-2,0.9-3.1,2-4,4l-0.8,1.7L44.7,67
		c-0.9-2-2-3.1-4-4L39,62.2l1.7-0.8c2-0.9,3.1-2,4-4l0.8-1.7l0.8,1.7c0.9,2,2,3.1,4,4l1.7,0.8L50.3,63z"/>
	<linearGradient id="SVGID_5_" gradientUnits="userSpaceOnUse" x1="1" y1="19.6" x2="151.0833" y2="19.6">
		<stop  offset="0" style="stop-color:#E1CEDF"/>
		<stop  offset="1" style="stop-color:#E2F0EE"/>
	</linearGradient>
	<path class="st4" d="M127.8,17.4c-4.4-1.4-5.2-2.1-6.5-6.5c-0.3-1-1.2-1.6-2.2-1.6s-1.9,0.6-2.2,1.6c-1.4,4.4-2.1,5.2-6.5,6.5
		c-1,0.3-1.6,1.2-1.6,2.2s0.6,1.9,1.6,2.2c2.2,0.7,3.5,1.2,4.4,2.1s1.4,2.2,2.1,4.4c0.3,1,1.2,1.6,2.2,1.6s1.9-0.6,2.2-1.6
		c1.4-4.4,2.1-5.2,6.5-6.5c1-0.3,1.6-1.2,1.6-2.2C129.4,18.6,128.8,17.7,127.8,17.4z M123.9,20.4c-2,0.9-3.1,2-4,4l-0.8,1.7
		l-0.8-1.7c-0.9-2-2-3.1-4-4l-1.7-0.8l1.7-0.8c2-0.9,3.1-2,4-4l0.8-1.7l0.8,1.7c0.9,2,2,3.1,4,4l1.7,0.8L123.9,20.4z"/>
	<linearGradient id="SVGID_6_" gradientUnits="userSpaceOnUse" x1="1" y1="105.1" x2="151.0833" y2="105.1">
		<stop  offset="0" style="stop-color:#E1CEDF"/>
		<stop  offset="1" style="stop-color:#E2F0EE"/>
	</linearGradient>
	<path class="st5" d="M25.5,103.1c-3.6-1.1-4.1-1.7-5.2-5.2c-0.3-0.9-1.1-1.5-2-1.5s-1.8,0.6-2,1.5c-1.1,3.6-1.7,4.1-5.2,5.2
		c-0.9,0.3-1.5,1.1-1.5,2s0.6,1.8,1.5,2c3.6,1.1,4.1,1.7,5.2,5.2c0.3,0.9,1.1,1.5,2,1.5s1.8-0.6,2-1.5c1.1-3.6,1.7-4.1,5.2-5.2
		c0.9-0.3,1.5-1.1,1.5-2S26.3,103.4,25.5,103.1z M21.5,105.9c-1.1,0.6-1.9,1.4-2.5,2.5l-0.8,1.4l-0.8-1.4c-0.6-1.1-1.4-1.9-2.5-2.5
		l-1.4-0.8l1.4-0.8c1.1-0.6,1.9-1.4,2.5-2.5l0.8-1.4l0.8,1.4c0.6,1.1,1.4,1.9,2.5,2.5l1.4,0.8L21.5,105.9z"/>
</g>
</svg>
