<svg xmlns="http://www.w3.org/2000/svg" width="40" height="40" viewBox="0 0 40 40" xmlns:xlink="http://www.w3.org/1999/xlink"><defs><rect id="social_mailru-a" width="40" height="40" rx="3"/><mask id="social_mailru-b" width="40" height="40" x="0" y="0" fill="#fff"><use xlink:href="#social_mailru-a"/></mask></defs><g fill="none" fill-rule="evenodd"><use stroke="#373737" stroke-width="2" mask="url(#social_mailru-b)" xlink:href="#social_mailru-a"/><path class="footer__social-image" fill="#FFF" d="M20.058 12.397c2.09 0 4.03.896 5.523 2.39 0-.747.448-1.195 1.045-1.195h.15c1.045 0 1.194.895 1.194 1.194v10.75c0 .746.747 1.044 1.195.596 1.791-1.791 3.732-9.107-1.046-13.287-4.478-4.03-10.6-3.284-13.884-1.045-3.434 2.389-5.673 7.614-3.434 12.541 2.389 5.375 8.958 7.017 12.989 5.375 1.94-.747 2.986 1.94.896 2.836-3.136 1.344-11.944 1.195-15.975-5.822-2.837-4.927-2.687-13.437 4.628-17.766 5.524-3.285 12.989-2.39 17.318 2.239 4.629 4.927 4.33 14.034-.149 17.468-2.09 1.642-5.076 0-5.076-2.24v-.746c-1.493 1.493-3.284 2.239-5.374 2.239-4.18 0-7.764-3.583-7.764-7.763 0-4.031 3.583-7.764 7.764-7.764zm5.076 7.465c-.15-2.986-2.39-4.777-5.076-4.777-3.136 0-4.778 2.388-4.778 5.225 0 3.135 2.09 5.076 4.778 5.076 2.985 0 5.076-2.24 5.225-4.927l-.15-.597z" opacity=".3"/></g></svg>