<svg xmlns="http://www.w3.org/2000/svg" width="40" height="40" viewBox="0 0 40 40" xmlns:xlink="http://www.w3.org/1999/xlink"><defs><rect id="social_twitter-a" width="40" height="40" rx="3"/><mask id="social_twitter-b" width="40" height="40" x="0" y="0" fill="#fff"><use xlink:href="#social_twitter-a"/></mask></defs><g fill="none" fill-rule="evenodd"><use stroke="#373737" class="footer__social-image" stroke-width="2" mask="url(#social_twitter-b)" xlink:href="#social_twitter-a"/><path class="footer__social-image" fill="#FFF" d="M31.42 13.268a7.556 7.556 0 0 1-2.525.772 5.18 5.18 0 0 0 1.897-2.662 7.024 7.024 0 0 1-2.84 1.085 4.393 4.393 0 0 0-3.29-1.512c-2.547.035-4.584 2.23-4.552 4.903 0 .368.038.735.115 1.094-3.691-.158-7.127-2.02-9.386-5.089-1.178 2.214-.584 5.003 1.38 6.479a2.772 2.772 0 0 1-1.989-.555c-.089 2.28 1.39 4.298 3.512 4.792a3.36 3.36 0 0 1-1.896.155c.145 1.442 2.023 3.327 4.07 3.327-1.785 1.682-4.196 2.43-6.565 2.037a12.96 12.96 0 0 0 7.123 2.167c3.532-.019 6.9-1.565 9.31-4.275 2.411-2.71 3.651-6.344 3.43-10.044v-.162a8.23 8.23 0 0 0 2.206-2.513z" opacity=".3"/></g></svg>