<svg xmlns="http://www.w3.org/2000/svg" width="40" height="40" viewBox="0 0 40 40" xmlns:xlink="http://www.w3.org/1999/xlink"><defs><rect id="social_ok-a" width="40" height="40" rx="3"/><mask id="social_ok-b" width="40" height="40" x="0" y="0" fill="#fff"><use xlink:href="#social_ok-a"/></mask></defs><g fill="none" fill-rule="evenodd"><use stroke="#373737" stroke-width="2" mask="url(#social_ok-b)" xlink:href="#social_ok-a"/><path fill="#FFF" class="footer__social-image" d="M20.013 20.422c3.67 0 6.641-2.977 6.641-6.654s-2.971-6.654-6.641-6.654-6.642 2.977-6.642 6.654 2.972 6.654 6.642 6.654zm0-9.936a3.265 3.265 0 0 1 3.263 3.27 3.265 3.265 0 0 1-3.263 3.269 3.265 3.265 0 0 1-3.264-3.27c0-1.806 1.46-3.27 3.264-3.27zm7.657 10.75c-.381-.75-1.41-1.387-2.794-.293-1.866 1.476-4.863 1.476-4.863 1.476s-2.997 0-4.864-1.476c-1.384-1.094-2.425-.458-2.793.293-.66 1.31.088 1.946 1.752 3.028 1.422.916 3.378 1.26 4.648 1.386l-1.054 1.056-3.912 3.919a1.53 1.53 0 0 0 0 2.162l.178.178a1.523 1.523 0 0 0 2.159 0l3.911-3.918 3.911 3.918a1.523 1.523 0 0 0 2.159 0l.178-.178a1.53 1.53 0 0 0 0-2.162l-3.911-3.919-1.054-1.056c1.27-.127 3.2-.47 4.61-1.386 1.663-1.082 2.4-1.718 1.739-3.028z" opacity=".3"/></g></svg>