<svg xmlns="http://www.w3.org/2000/svg" width="40" height="40" viewBox="0 0 40 40" xmlns:xlink="http://www.w3.org/1999/xlink"><defs><rect id="social_vk-a" width="40" height="40" rx="3"/><mask id="social_vk-b" width="40" height="40" x="0" y="0" fill="#fff"><use xlink:href="#social_vk-a"/></mask></defs><g fill="none" fill-rule="evenodd"><use stroke="#373737" stroke-width="2" mask="url(#social_vk-b)" xlink:href="#social_vk-a"/><path fill="#FFF" class="footer__social-image" d="M19.575 28.557h1.656a1.41 1.41 0 0 0 .756-.326 1.19 1.19 0 0 0 .227-.719s-.032-2.219 1-2.543c1.032-.324 2.323 2.122 3.707 3.06.521.41 1.183.6 1.842.527h3.7s1.936-.145 1.018-1.649a12.246 12.246 0 0 0-2.752-3.145c-2.321-2.128-2.01-1.783.786-5.463 1.7-2.241 2.383-3.609 2.17-4.2-.2-.558-1.446-.462-1.446-.462h-4.176a1.02 1.02 0 0 0-.538.106 1.16 1.16 0 0 0-.368.476 23.2 23.2 0 0 1-1.539 3.242c-1.855 3.112-2.6 3.277-2.9 3.083-.706-.45-.529-1.809-.529-2.775 0-3.016.463-4.274-.9-4.6a7.216 7.216 0 0 0-1.945-.191 9.091 9.091 0 0 0-3.457.349c-.474.229-.84.74-.617.77.472.041.912.26 1.23.611.288.577.43 1.217.412 1.862 0 0 .245 3.551-.573 3.991-.561.3-1.332-.315-2.986-3.139a25.337 25.337 0 0 1-1.487-3.075 1.221 1.221 0 0 0-.343-.459 1.736 1.736 0 0 0-.64-.255H6.92c-.293 0-.578.096-.813.272a.843.843 0 0 0-.016.7s3.1 7.218 6.61 10.829a9.661 9.661 0 0 0 6.874 3.123z" opacity=".3"/></g></svg>