<svg xmlns="http://www.w3.org/2000/svg" width="40" height="40" viewBox="0 0 40 40" xmlns:xlink="http://www.w3.org/1999/xlink"><defs><rect id="social_gplus-a" width="40" height="40" rx="3"/><mask id="social_gplus-b" width="40" height="40" x="0" y="0" fill="#fff"><use xlink:href="#social_gplus-a"/></mask></defs><g fill="none" fill-rule="evenodd"><use stroke="#373737" stroke-width="2" mask="url(#social_gplus-b)" xlink:href="#social_gplus-a"/><path class="footer__social-image" fill="#FFF" d="M33.183 11.19h-2.825V8.342h-1.884v2.848h-2.826v1.899h2.826v2.848h1.884v-2.848h2.825V11.19zM19.5 21.96c-.633-.457-1.85-1.571-1.85-2.224 0-.768.216-1.145 1.349-2.046a4.708 4.708 0 0 0 2.063-3.629 5.233 5.233 0 0 0-2.41-4.468h2.422l1.211-1.25h-6.793c-3.15 0-6.115 2.59-6.115 5.406a5.228 5.228 0 0 0 1.553 3.796 5.143 5.143 0 0 0 3.8 1.481c.223 0 .438.036.65.02a3.074 3.074 0 0 0-.356 1.354 2.82 2.82 0 0 0 .956 1.987c-.403 0-.793.017-1.217.017-3.902 0-7.01 2.532-7.01 5.157 0 2.584 3.397 4.517 7.299 4.517 4.448 0 6.853-2.887 6.853-5.472A4.967 4.967 0 0 0 19.5 21.96zm-3.754-3.584c-1.81-.055-3.531-2.062-3.843-4.482-.312-2.42.901-4.272 2.71-4.218 1.81.054 3.61 1.994 3.923 4.417.312 2.424-.98 4.338-2.79 4.283zm-.708 12.034c-2.697 0-4.646-1.526-4.646-3.615 0-2.046 2.417-3.75 5.114-3.72a5.77 5.77 0 0 1 1.748.284c1.464 1.037 2.514 1.622 2.81 2.804.057.242.085.49.086.739 0 2.088-1.321 3.508-5.112 3.508z" opacity=".3"/></g></svg>