<?xml version="1.0" encoding="iso-8859-1"?>
<!-- Generator: Adobe Illustrator 21.0.2, SVG Export Plug-In . SVG Version: 6.00 Build 0)  -->
<svg version="1.1" id="&#x421;&#x43B;&#x43E;&#x439;_1"
	 xmlns="http://www.w3.org/2000/svg" xmlns:xlink="http://www.w3.org/1999/xlink" x="0px" y="0px" viewBox="0 0 30 30"
	 style="enable-background:new 0 0 30 30;" xml:space="preserve">
<linearGradient id="SVGID_1_" gradientUnits="userSpaceOnUse" x1="0" y1="15" x2="30" y2="15">
	<stop  offset="0" style="stop-color:#E3CFE1"/>
	<stop  offset="1" style="stop-color:#E3F1F0"/>
</linearGradient>
<circle style="fill:url(#SVGID_1_);" cx="15" cy="15" r="15"/>
<g>
	<path style="fill:#4B4154;" d="M25,8.799c-0.733,0.325-1.526,0.55-2.356,0.648c0.848-0.508,1.495-1.312,1.806-2.272
		c-0.794,0.47-1.672,0.812-2.612,0.995c-0.744-0.794-1.812-1.294-2.99-1.294c-2.264,0-4.101,1.837-4.101,4.101
		c0,0.323,0.037,0.634,0.105,0.934c-3.412-0.172-6.432-1.801-8.459-4.286C6.037,8.232,5.836,8.94,5.836,9.691
		c0,1.422,0.727,2.679,1.825,3.411c-0.672-0.017-1.3-0.206-1.855-0.512v0.05c0,1.989,1.416,3.648,3.289,4.028
		c-0.342,0.091-0.708,0.139-1.08,0.139c-0.262,0-0.519-0.023-0.775-0.072c0.525,1.63,2.037,2.812,3.833,2.85
		c-1.405,1.098-3.175,1.751-5.097,1.751c-0.33,0-0.653-0.019-0.976-0.055c1.819,1.165,3.973,1.842,6.292,1.842
		c7.543,0,11.669-6.25,11.669-11.668l-0.012-0.531C23.755,10.344,24.45,9.624,25,8.799L25,8.799z M25,8.799"/>
</g>
</svg>
