<?xml version="1.0" encoding="utf-8"?>
<!-- Generator: Adobe Illustrator 21.0.2, SVG Export Plug-In . SVG Version: 6.00 Build 0)  -->
<svg version="1.1" id="twitter" xmlns="http://www.w3.org/2000/svg" xmlns:xlink="http://www.w3.org/1999/xlink" x="0px" y="0px"
	 viewBox="0 0 24.6 20" style="enable-background:new 0 0 24.6 20;" xml:space="preserve">
<style type="text/css">
	.st0{fill:#493F52;}
</style>
<path class="st0" d="M24.5,2.3c-0.9,0.4-1.9,0.7-2.9,0.8c1-0.6,1.8-1.6,2.2-2.8c-1,0.6-2.1,1-3.2,1.2c-0.9-1-2.2-1.6-3.7-1.6
	c-2.8,0-5.1,2.3-5.1,5.1c0,0.4,0,0.8,0.1,1.2C7.8,5.9,4.1,3.9,1.6,0.9C1.1,1.6,0.9,2.5,0.9,3.4c0,1.8,0.9,3.3,2.2,4.2
	C2.3,7.6,1.5,7.4,0.9,7v0.1c0,2.4,1.7,4.5,4,5c-0.4,0.1-0.9,0.2-1.3,0.2c-0.3,0-0.6,0-1-0.1c0.6,2,2.5,3.5,4.7,3.5
	c-1.7,1.3-3.9,2.1-6.3,2.1c-0.4,0-0.8,0-1.2-0.1C2.1,19.1,4.7,20,7.6,20C16.9,20,22,12.3,22,5.6l0-0.6C22.9,4.2,23.8,3.3,24.5,2.3
	L24.5,2.3z"/>
</svg>
