<?xml version="1.0" encoding="iso-8859-1"?>
<!-- Generator: Adobe Illustrator 21.0.2, SVG Export Plug-In . SVG Version: 6.00 Build 0)  -->
<svg version="1.1" id="&#x421;&#x43B;&#x43E;&#x439;_1"
	 xmlns="http://www.w3.org/2000/svg" xmlns:xlink="http://www.w3.org/1999/xlink" x="0px" y="0px" viewBox="0 0 255.12 141.73"
	 style="enable-background:new 0 0 255.12 141.73;" xml:space="preserve">
<g>
	<path style="fill:#493F52;" d="M182.764,36.598c-4.057,1.799-8.451,3.045-13.044,3.59c4.697-2.811,8.278-7.266,9.999-12.577
		c-4.394,2.604-9.256,4.498-14.463,5.51c-4.117-4.394-10.034-7.162-16.556-7.162c-12.534,0-22.706,10.172-22.706,22.706
		c0,1.791,0.207,3.512,0.579,5.173c-18.892-0.952-35.612-9.973-46.83-23.727c-1.963,3.347-3.08,7.266-3.08,11.426
		c0,7.872,4.022,14.835,10.103,18.883c-3.719-0.095-7.197-1.142-10.267-2.837v0.277c0,11.011,7.837,20.197,18.208,22.299
		c-1.894,0.502-3.918,0.77-5.977,0.77c-1.453,0-2.872-0.13-4.29-0.398c2.906,9.022,11.279,15.57,21.218,15.777
		c-7.776,6.081-17.577,9.696-28.216,9.696c-1.825,0-3.615-0.103-5.406-0.303c10.068,6.453,21.997,10.198,34.833,10.198
		c41.762,0,64.606-34.6,64.606-64.597l-0.069-2.941C175.87,45.152,179.719,41.165,182.764,36.598L182.764,36.598z M182.764,36.598"
		/>
</g>
</svg>
